<?xml version="1.0" standalone="no"?>
<!DOCTYPE svg PUBLIC "-//W3C//DTD SVG 20010904//EN"
 "http://www.w3.org/TR/2001/REC-SVG-20010904/DTD/svg10.dtd">
<svg version="1.0" xmlns="http://www.w3.org/2000/svg"
 width="1256.000000pt" height="1258.000000pt" viewBox="0 0 1256.000000 1258.000000"
 preserveAspectRatio="xMidYMid meet">

<g transform="translate(0.000000,1258.000000) scale(0.100000,-0.100000)"
fill="#000000" stroke="none">
<path d="M4262 11908 c-7 -7 -12 -31 -12 -55 0 -42 1 -43 34 -43 30 0 33 -3
30 -26 -3 -33 -8 -37 -63 -54 -60 -19 -144 -98 -177 -167 -24 -48 -27 -66 -25
-136 1 -68 7 -92 32 -145 17 -34 46 -75 65 -90 41 -32 41 -38 9 -64 -44 -34
-27 -98 27 -98 23 0 41 10 69 38 l37 39 81 -1 c79 -1 81 -2 118 -38 40 -39 78
-49 101 -26 20 20 14 63 -13 88 l-24 23 49 53 c117 129 120 312 7 441 -35 40
-106 83 -150 92 -27 6 -32 12 -35 39 -3 30 -1 32 27 32 30 0 31 1 31 49 0 35
-4 51 -16 55 -29 11 -189 7 -202 -6z m196 -45 l-3 -27 -85 1 c-84 1 -85 2 -88
27 l-3 26 91 0 91 0 -3 -27z m-60 -80 c-2 -22 -8 -28 -28 -28 -20 0 -26 6 -28
28 -3 24 0 27 28 27 28 0 31 -3 28 -27z m98 -88 c68 -33 138 -111 155 -174 58
-205 -94 -401 -301 -389 -112 7 -198 66 -251 173 -29 59 -31 71 -27 137 7 103
44 169 128 230 84 61 200 70 296 23z m-237 -571 c3 -3 -11 -21 -31 -41 -55
-55 -99 -22 -46 34 17 18 29 22 48 18 14 -4 27 -9 29 -11z m297 -11 c28 -33
30 -48 8 -57 -9 -3 -17 -6 -19 -6 -1 0 -19 15 -40 34 -34 31 -35 35 -18 45 29
17 44 13 69 -16z"/>
<path d="M4360 11638 c-1 -2 -2 -52 -3 -113 l-2 -110 -74 -54 c-93 -69 -73
-81 23 -14 l71 50 3 121 c2 79 -1 122 -8 122 -5 0 -10 -1 -10 -2z"/>
<path d="M7657 11903 c-4 -3 -7 -183 -7 -399 l0 -392 23 -6 c12 -3 64 -6 115
-6 l92 0 0 -40 0 -40 213 2 212 3 3 38 3 37 82 1 c99 1 125 3 134 13 9 9 17
739 8 773 l-5 23 -434 0 c-238 0 -436 -3 -439 -7z m863 -313 l0 -300 -425 0
-425 0 0 300 0 300 425 0 425 0 0 -300z m0 -395 l0 -75 -425 0 -425 0 0 75 0
75 425 0 425 0 0 -75z m-230 -125 l0 -29 -195 -3 -195 -3 0 32 0 33 188 2
c103 2 190 2 195 0 4 -2 7 -16 7 -32z"/>
<path d="M8061 11675 l-24 -75 -83 0 c-46 0 -85 -4 -88 -9 -3 -4 22 -28 57
-52 73 -51 77 -56 67 -83 -6 -18 -18 -22 -86 -27 -43 -3 43 -5 191 -5 149 0
234 2 190 5 l-80 6 -3 30 c-2 27 4 34 57 70 71 47 78 68 24 64 -21 -1 -59 -1
-84 0 l-46 1 -24 72 c-13 39 -29 73 -34 75 -6 2 -21 -31 -34 -72z m59 -25 c20
-66 25 -70 96 -70 35 0 64 -3 64 -7 0 -5 -23 -23 -51 -41 -45 -30 -50 -36 -47
-65 l3 -32 -90 0 -90 0 3 31 c3 27 -3 35 -47 65 -28 19 -51 37 -51 41 0 4 30
8 67 10 l67 3 19 50 c10 28 20 56 23 64 7 20 18 4 34 -49z"/>
<path d="M8207 11198 c-7 -4 47 -7 118 -6 141 1 135 6 -13 10 -52 2 -99 0
-105 -4z"/>
<path d="M4007 11693 c-9 -9 23 -43 40 -43 8 0 13 5 11 12 -6 16 -43 39 -51
31z"/>
<path d="M4693 11683 c-7 -2 -13 -12 -13 -20 0 -10 6 -13 16 -9 9 3 18 6 20 6
2 0 4 7 4 15 0 15 -6 17 -27 8z"/>
<path d="M3923 11428 c2 -7 14 -13 27 -13 13 0 25 6 28 13 2 8 -7 12 -28 12
-21 0 -30 -4 -27 -12z"/>
<path d="M4755 11431 c-7 -12 31 -25 45 -16 5 3 10 10 10 16 0 12 -47 12 -55
0z"/>
<path d="M4013 11185 c-3 -9 -3 -19 1 -22 7 -7 36 16 36 28 0 15 -30 10 -37
-6z"/>
<path d="M4680 11191 c0 -6 9 -15 21 -21 18 -10 20 -9 17 7 -3 19 -38 32 -38
14z"/>
<path d="M9738 10333 c-67 -82 -130 -157 -140 -168 -9 -11 -67 -81 -130 -155
-174 -206 -378 -451 -423 -506 -22 -27 -54 -64 -71 -84 -17 -19 -80 -94 -140
-166 -200 -240 -467 -558 -584 -694 -63 -75 -131 -156 -150 -179 -19 -24 -57
-69 -83 -100 -27 -31 -58 -68 -68 -83 l-19 -26 53 -54 c47 -47 99 -103 171
-188 202 -238 384 -587 472 -908 18 -69 35 -126 36 -127 3 -2 348 58 598 104
91 17 282 51 425 77 143 25 298 52 345 60 47 9 198 35 335 59 212 37 341 60
760 135 28 5 104 19 170 30 290 48 346 61 341 79 -3 9 -19 76 -35 150 l-31
133 20 26 c39 48 20 114 -36 128 -42 11 -73 -4 -91 -42 -16 -32 -16 -38 -3
-62 9 -15 30 -34 47 -42 18 -8 35 -21 38 -28 8 -22 55 -229 55 -245 0 -9 -13
-17 -32 -20 -182 -32 -900 -159 -1053 -187 -60 -11 -175 -31 -255 -45 -418
-73 -784 -138 -930 -164 -106 -20 -130 -17 -130 15 0 7 -15 66 -34 131 -141
494 -413 958 -765 1308 -45 44 -81 86 -81 93 0 11 186 239 299 367 35 40 81
95 138 165 15 19 30 37 33 40 6 5 140 165 259 309 30 36 57 68 60 71 4 3 109
129 236 280 126 151 256 307 290 346 33 39 96 114 140 167 44 53 86 96 93 96
8 1 41 -25 75 -57 34 -33 77 -72 95 -87 17 -16 32 -34 32 -40 0 -7 -20 -31
-45 -53 l-46 -41 98 -30 c134 -41 184 -53 190 -47 3 2 -7 52 -21 110 -14 58
-26 110 -26 115 0 5 -5 22 -10 37 l-11 27 -47 -46 c-26 -26 -51 -47 -55 -47
-5 0 -45 35 -90 79 -45 43 -96 91 -114 105 l-31 26 -124 -147z"/>
<path d="M4590 10039 c0 -41 4 -68 8 -61 10 14 8 119 -2 129 -3 3 -6 -27 -6
-68z"/>
<path d="M4810 10092 c0 -15 -6 -22 -20 -22 -29 0 -47 -42 -32 -75 9 -20 18
-25 39 -22 27 3 28 7 31 62 2 32 -2 63 -7 68 -8 8 -11 4 -11 -11z m-2 -78 c-4
-39 -32 -39 -36 0 -4 29 16 52 31 37 5 -5 7 -21 5 -37z"/>
<path d="M4907 10103 c-11 -10 -8 -121 3 -128 6 -3 10 5 10 19 0 38 17 40 35
5 20 -37 30 -33 15 6 -7 20 -8 31 0 39 14 14 12 32 -6 50 -16 16 -46 21 -57 9z
m51 -37 c-4 -31 -38 -34 -38 -3 0 29 7 37 27 30 8 -3 13 -15 11 -27z"/>
<path d="M5499 10105 c-5 -10 -4 -110 1 -130 2 -5 6 10 9 35 7 53 25 59 29 10
6 -58 24 -62 20 -5 -3 43 -6 50 -25 53 -14 2 -23 11 -25 25 -2 12 -6 18 -9 12z"/>
<path d="M6775 10102 c-9 -6 -11 -62 -6 -119 1 -8 14 -13 34 -12 29 1 30 2 7
8 -23 6 -25 12 -25 61 0 49 2 55 25 61 l25 7 -25 1 c-14 0 -30 -3 -35 -7z"/>
<path d="M7043 10040 c0 -41 2 -58 4 -37 2 20 2 54 0 75 -2 20 -4 3 -4 -38z"/>
<path d="M7657 10103 c-11 -11 -8 -135 3 -128 6 3 10 17 10 31 0 33 19 30 31
-6 6 -16 15 -30 20 -30 12 0 11 4 -2 34 -9 20 -9 29 0 40 17 20 5 53 -22 60
-28 7 -32 7 -40 -1z m43 -18 c15 -18 6 -45 -15 -45 -10 0 -15 10 -15 30 0 33
11 38 30 15z"/>
<path d="M4306 10039 c-9 -34 -14 -64 -11 -67 3 -4 8 4 12 16 7 30 48 30 58 0
3 -13 8 -18 11 -13 6 15 -30 118 -43 122 -5 2 -17 -24 -27 -58z m36 -11 c-13
-13 -24 5 -16 27 7 16 8 16 17 0 6 -11 6 -20 -1 -27z"/>
<path d="M8240 10040 c0 -66 17 -83 22 -22 4 47 22 49 26 2 5 -49 22 -63 22
-18 0 49 -9 68 -31 68 -10 0 -19 7 -19 15 0 8 -4 15 -10 15 -6 0 -10 -27 -10
-60z"/>
<path d="M7318 10079 c-7 -20 7 -102 17 -106 9 -3 10 31 5 110 0 11 -18 8 -22
-4z"/>
<path d="M4400 9998 c0 -39 3 -69 6 -66 9 10 12 138 3 138 -5 0 -9 -32 -9 -72z"/>
<path d="M4438 10058 c7 -7 12 -24 12 -38 0 -14 -5 -31 -12 -38 -7 -7 -8 -12
-2 -12 18 0 34 24 34 50 0 26 -16 50 -34 50 -6 0 -5 -5 2 -12z"/>
<path d="M4497 10063 c-11 -10 -8 -133 3 -133 6 0 10 9 10 20 0 13 7 20 20 20
32 0 44 40 26 86 -5 14 -47 20 -59 7z m53 -38 c0 -24 -22 -49 -33 -38 -9 8 -9
58 -1 66 12 12 34 -6 34 -28z"/>
<path d="M4633 10020 c0 -30 2 -43 4 -27 2 15 2 39 0 55 -2 15 -4 2 -4 -28z"/>
<path d="M4683 10063 c-7 -2 -13 -22 -13 -43 0 -30 4 -40 21 -45 12 -4 26 -2
33 5 8 10 8 11 -2 6 -15 -9 -44 12 -36 25 3 5 16 9 30 9 26 0 32 18 12 38 -13
13 -24 14 -45 5z m37 -23 c0 -5 -6 -10 -14 -10 -8 0 -18 5 -21 10 -3 6 3 10
14 10 12 0 21 -4 21 -10z"/>
<path d="M5013 10063 c-7 -2 -13 -22 -13 -43 0 -30 4 -40 21 -45 12 -4 26 -2
33 5 8 10 8 11 -2 6 -15 -9 -44 12 -36 25 3 5 16 9 30 9 26 0 32 18 12 38 -13
13 -24 14 -45 5z m37 -24 c0 -5 -9 -9 -20 -9 -22 0 -27 16 -7 23 15 5 27 -1
27 -14z"/>
<path d="M5093 10054 c-4 -11 1 -23 15 -35 22 -17 29 -39 14 -39 -4 0 -14 6
-21 13 -11 10 -13 9 -9 -3 7 -22 47 -25 55 -4 4 12 -1 22 -15 32 -30 20 -30
47 -1 31 17 -9 20 -8 17 3 -7 20 -47 22 -55 2z"/>
<path d="M5182 10058 c-7 -7 -12 -27 -12 -44 0 -24 5 -34 21 -39 12 -4 26 -2
31 3 7 7 4 10 -8 9 -10 -1 -20 6 -22 16 -3 13 3 17 22 17 15 0 26 6 26 13 0
16 -20 37 -35 37 -6 0 -16 -5 -23 -12z m38 -19 c0 -5 -7 -9 -15 -9 -15 0 -20
12 -9 23 8 8 24 -1 24 -14z"/>
<path d="M5270 10060 c-12 -8 -9 -10 13 -10 34 0 35 -16 1 -24 -19 -5 -25 -12
-22 -29 2 -17 10 -22 33 -22 26 0 30 4 31 30 1 55 -21 78 -56 55z m33 -71
c-17 -17 -37 -1 -22 17 8 10 15 12 23 4 7 -7 7 -13 -1 -21z"/>
<path d="M5359 10063 c-6 -32 -5 -70 2 -83 6 -10 8 -1 9 26 0 22 5 45 12 52 9
9 8 12 -5 12 -9 0 -18 -3 -18 -7z"/>
<path d="M5408 10046 c-16 -36 3 -79 34 -74 12 2 24 10 26 18 5 13 3 13 -11 2
-22 -18 -37 -7 -37 28 0 35 15 46 37 28 14 -11 16 -11 11 2 -8 27 -47 24 -60
-4z"/>
<path d="M6864 10021 c0 -46 2 -50 13 -35 11 16 13 16 19 1 3 -10 10 -17 15
-17 6 0 5 9 -1 21 -6 11 -9 35 -5 52 5 28 4 30 -8 15 -12 -15 -14 -15 -23 -1
-8 12 -10 3 -10 -36z"/>
<path d="M6941 9998 c0 -59 2 -68 10 -48 6 13 7 35 4 48 -7 28 2 62 16 62 20
0 28 -44 12 -68 -13 -22 -13 -23 4 -20 20 4 28 36 19 74 -5 19 -13 24 -36 24
l-30 0 1 -72z"/>
<path d="M7078 10046 c-16 -36 3 -79 34 -74 31 4 44 31 32 65 -13 38 -50 43
-66 9z m50 -32 c-4 -39 -32 -39 -36 0 -4 29 16 52 31 37 5 -5 7 -21 5 -37z"/>
<path d="M7170 10018 c0 -56 8 -62 12 -9 1 18 6 35 10 37 13 9 9 24 -7 24 -11
0 -15 -12 -15 -52z"/>
<path d="M7234 10059 c-4 -7 2 -9 16 -7 33 4 36 -18 5 -26 -20 -5 -26 -12 -23
-29 2 -17 10 -22 32 -22 24 0 30 4 31 25 3 38 -12 70 -34 70 -11 0 -23 -5 -27
-11z m38 -71 c-6 -6 -15 -9 -18 -5 -4 3 -4 14 0 23 5 13 9 15 18 6 9 -9 9 -15
0 -24z"/>
<path d="M7382 10058 c-7 -7 -12 -27 -12 -44 0 -37 30 -55 55 -34 28 23 13 90
-20 90 -6 0 -16 -5 -23 -12z m48 -37 c0 -26 -21 -43 -37 -30 -16 14 -17 41 -1
57 14 14 38 -2 38 -27z"/>
<path d="M7469 10058 c0 -7 -2 -28 -3 -46 -2 -18 0 -35 5 -38 5 -3 9 12 9 33
0 22 5 44 12 51 9 9 8 12 -5 12 -9 0 -17 -6 -18 -12z"/>
<path d="M7524 10045 c17 -68 18 -86 5 -102 -12 -14 -12 -16 1 -11 16 5 49 89
48 123 0 16 -3 14 -11 -7 -13 -32 -27 -37 -27 -9 0 11 -5 23 -11 27 -9 5 -10
-1 -5 -21z"/>
<path d="M7752 10058 c-7 -7 -12 -24 -12 -38 0 -14 5 -31 12 -38 14 -14 48
-16 48 -3 0 5 -8 8 -17 7 -10 0 -19 7 -21 17 -3 13 3 17 22 17 15 0 26 6 26
13 0 16 -20 37 -35 37 -6 0 -16 -5 -23 -12z m38 -19 c0 -5 -7 -9 -15 -9 -15 0
-20 12 -9 23 8 8 24 -1 24 -14z"/>
<path d="M7833 10054 c-4 -11 1 -23 15 -35 22 -17 29 -39 14 -39 -4 0 -14 6
-21 13 -11 10 -13 9 -9 -3 7 -22 47 -25 55 -4 4 12 -1 22 -15 32 -30 20 -30
47 -1 31 17 -9 20 -8 17 3 -7 20 -47 22 -55 2z"/>
<path d="M7934 10062 c-32 -21 -20 -92 15 -92 11 0 23 5 27 12 5 7 2 9 -8 6
-19 -8 -43 7 -34 21 4 6 18 11 32 11 26 0 32 18 12 38 -14 14 -28 15 -44 4z
m36 -22 c0 -5 -9 -10 -20 -10 -11 0 -20 5 -20 10 0 6 9 10 20 10 11 0 20 -4
20 -10z"/>
<path d="M8017 10064 c-13 -14 -7 -22 13 -17 11 3 20 0 20 -6 0 -6 -4 -11 -9
-11 -5 0 -17 -7 -26 -16 -20 -21 -3 -44 32 -44 23 0 24 3 21 48 -2 38 -7 48
-23 50 -12 2 -24 0 -28 -4z m35 -76 c-9 -9 -15 -9 -24 0 -10 10 -10 15 2 22 9
6 19 5 24 0 7 -7 6 -14 -2 -22z"/>
<path d="M8099 10058 c-6 -66 -6 -79 2 -84 5 -3 9 12 9 33 0 22 5 44 12 51 9
9 8 12 -5 12 -9 0 -17 -6 -18 -12z"/>
<path d="M8162 10058 c-17 -17 -15 -63 3 -78 16 -13 55 -5 55 12 0 7 -5 6 -15
-2 -20 -17 -35 -4 -35 30 0 32 18 50 31 29 4 -7 11 -10 14 -7 11 10 -4 28 -24
28 -9 0 -22 -5 -29 -12z"/>
<path d="M10812 9874 c-349 -63 -608 -316 -672 -656 -25 -131 -25 -190 1 -313
22 -107 93 -270 146 -335 196 -240 470 -357 750 -321 103 13 249 61 318 104
142 88 232 182 310 322 94 168 128 418 79 579 -41 132 -101 255 -158 321 -14
17 -26 33 -26 37 0 12 -155 135 -210 166 -81 46 -176 79 -276 96 -105 19 -162
19 -262 0z m345 -1156 c-3 -8 -6 -5 -6 6 -1 11 2 17 5 13 3 -3 4 -12 1 -19z"/>
<path d="M1070 9501 c-6 -13 -10 -144 -10 -358 0 -370 1 -378 58 -385 24 -3
27 -7 30 -48 2 -24 8 -50 14 -57 15 -19 551 -19 566 0 6 6 12 37 14 67 4 46 8
57 29 67 44 22 59 37 70 70 9 29 15 33 48 33 20 0 42 5 49 12 17 17 17 259 0
276 -7 7 -29 12 -49 12 -30 0 -39 4 -44 23 -9 27 -54 77 -72 77 -19 0 -33 34
-33 83 0 48 -11 63 -50 69 -18 2 -26 10 -28 28 -7 50 -6 50 -303 50 -265 0
-279 -1 -289 -19z m570 -6 c6 -8 10 -22 8 -32 -3 -16 -19 -19 -151 -23 l-147
-5 -97 -98 -98 -97 -5 -233 c-5 -246 -6 -248 -52 -225 -17 8 -18 35 -18 362 0
194 3 356 7 359 3 4 127 7 273 7 222 0 270 -2 280 -15z m71 -75 c15 -9 19 -22
19 -65 0 -53 -1 -55 -34 -69 -40 -17 -66 -60 -66 -108 0 -43 24 -76 66 -94 28
-12 34 -20 34 -44 0 -24 -7 -33 -39 -49 -52 -27 -78 -86 -57 -134 15 -37 43
-63 71 -69 17 -3 20 -12 23 -62 2 -41 -1 -62 -10 -67 -7 -5 -131 -9 -274 -9
-210 0 -264 3 -273 14 -8 9 -11 90 -9 272 l3 259 100 5 c55 3 106 9 113 13 8
6 12 39 12 106 0 54 3 101 7 104 11 11 293 8 314 -3z m-331 -86 c0 -123 -1
-124 -115 -124 -69 0 -95 3 -95 12 0 17 181 198 197 198 10 0 13 -23 13 -86z
m418 -79 c38 -32 47 -67 27 -109 -39 -83 -164 -70 -181 18 -6 37 14 88 43 105
32 18 80 12 111 -14z m130 -87 c8 -8 12 -51 12 -128 0 -128 -5 -140 -56 -140
-25 0 -34 5 -40 23 -10 32 -34 58 -72 74 -24 10 -32 19 -28 29 3 9 6 24 6 35
0 12 7 19 18 19 24 0 62 36 74 71 8 24 16 29 42 29 18 0 37 -5 44 -12z m-140
-194 c32 -22 55 -71 47 -101 -24 -96 -172 -95 -191 1 -15 83 77 147 144 100z"/>
<path d="M1403 9083 c26 -2 67 -2 90 0 23 2 2 3 -48 3 -49 0 -68 -1 -42 -3z"/>
<path d="M1403 8993 c26 -2 67 -2 90 0 23 2 2 3 -48 3 -49 0 -68 -1 -42 -3z"/>
<path d="M1403 8913 c26 -2 67 -2 90 0 23 2 2 3 -48 3 -49 0 -68 -1 -42 -3z"/>
<path d="M2407 8603 c-11 -10 -8 -123 3 -123 6 0 10 11 10 24 0 16 8 26 23 31
l22 8 -22 4 c-26 5 -33 43 -9 43 8 0 18 5 21 10 7 11 -38 14 -48 3z"/>
<path d="M2720 8591 c0 -13 -8 -21 -22 -23 -19 -2 -24 -10 -26 -44 -3 -45 9
-57 47 -47 19 5 21 13 21 69 0 36 -4 64 -10 64 -5 0 -10 -9 -10 -19z m0 -66
c0 -24 -5 -35 -14 -35 -21 0 -28 15 -20 45 10 39 34 32 34 -10z"/>
<path d="M3333 8540 c0 -41 2 -58 4 -37 2 20 2 54 0 75 -2 20 -4 3 -4 -38z"/>
<path d="M3640 8549 c0 -52 -2 -60 -17 -57 -25 5 -29 49 -6 66 17 13 17 14 -2
10 -15 -2 -21 -12 -23 -39 -3 -41 14 -61 46 -52 20 5 22 12 22 69 0 36 -4 64
-10 64 -6 0 -10 -27 -10 -61z"/>
<path d="M3187 8583 c-12 -11 -8 -78 6 -96 10 -15 12 -9 11 38 -1 55 -5 71
-17 58z"/>
<path d="M2488 8565 c-8 -13 0 -77 11 -88 5 -5 19 -7 32 -5 19 2 25 10 27 36
5 52 -10 76 -17 27 -4 -26 -11 -40 -21 -40 -10 0 -17 13 -20 40 -3 22 -8 36
-12 30z"/>
<path d="M2580 8526 c0 -55 17 -62 22 -9 4 52 28 56 28 4 0 -23 5 -41 11 -41
6 0 9 17 7 43 -3 39 -5 42 -35 45 -33 3 -33 3 -33 -42z"/>
<path d="M2775 8560 c-5 -9 -1 -10 14 -5 15 5 21 2 21 -9 0 -9 -6 -16 -14 -16
-7 0 -19 -7 -26 -15 -17 -20 4 -46 34 -41 18 2 21 10 21 47 0 37 -3 44 -22 47
-11 2 -24 -2 -28 -8z m35 -55 c0 -8 -7 -15 -15 -15 -16 0 -20 12 -8 23 11 12
23 8 23 -8z"/>
<path d="M2859 8568 c0 -2 -1 -22 -3 -45 -3 -52 12 -58 16 -6 4 52 28 56 28 4
0 -51 18 -54 22 -3 4 52 31 50 39 -3 l7 -40 -2 45 -1 45 -52 3 c-29 1 -53 1
-54 0z"/>
<path d="M3006 8554 c-18 -47 7 -94 41 -78 16 7 15 8 -4 11 -32 6 -30 33 2 33
14 0 25 4 25 9 0 24 -14 41 -35 41 -13 0 -26 -7 -29 -16z m42 -12 c2 -7 -3
-12 -12 -12 -9 0 -16 7 -16 16 0 17 22 14 28 -4z"/>
<path d="M3090 8524 c0 -25 4 -43 9 -40 4 3 7 16 4 28 -4 28 11 53 26 44 6 -4
11 -23 11 -42 0 -19 5 -34 10 -34 11 0 14 49 4 74 -4 10 -18 16 -35 16 -28 0
-29 -2 -29 -46z"/>
<path d="M3240 8560 c0 -5 6 -7 14 -4 26 10 27 -16 1 -28 -38 -17 -31 -53 10
-53 25 0 31 4 33 27 4 36 -14 68 -38 68 -11 0 -20 -4 -20 -10z m40 -55 c0 -8
-7 -15 -15 -15 -16 0 -20 12 -8 23 11 12 23 8 23 -8z"/>
<path d="M3415 8560 c-5 -9 -1 -10 13 -6 30 10 37 -12 8 -24 -16 -6 -26 -17
-26 -29 0 -25 11 -32 39 -24 19 5 22 11 19 47 -2 33 -7 42 -25 44 -11 2 -24
-2 -28 -8z m38 -55 c0 -6 -7 -11 -16 -13 -12 -3 -15 1 -11 13 7 17 25 17 27 0z"/>
<path d="M3500 8526 c0 -25 5 -46 10 -46 6 0 10 18 10 40 0 29 4 40 15 40 11
0 15 -11 15 -40 0 -22 5 -40 11 -40 6 0 9 17 7 43 -3 39 -5 42 -35 45 -33 3
-33 3 -33 -42z"/>
<path d="M8827 8394 c-4 -4 -7 -36 -7 -71 0 -62 0 -63 28 -63 15 0 33 5 40 12
13 13 16 86 4 105 -9 14 -55 27 -65 17z m60 -42 c8 -33 -8 -76 -30 -80 -14 -3
-17 5 -17 51 0 29 3 56 6 60 12 11 34 -6 41 -31z"/>
<path d="M9701 8328 c1 -49 4 -63 8 -43 8 38 22 38 40 0 8 -16 16 -24 18 -18
3 7 -1 21 -6 32 -7 13 -8 22 -1 26 17 11 11 54 -9 65 -44 23 -51 15 -50 -62z
m47 29 c-2 -11 -9 -22 -15 -25 -16 -4 -27 22 -19 43 8 22 38 6 34 -18z"/>
<path d="M10300 8400 c-6 -12 -7 -97 -1 -120 5 -20 7 -17 11 20 6 57 24 59 28
3 2 -24 8 -43 13 -43 6 0 9 21 7 48 -3 40 -6 47 -25 50 -13 2 -23 12 -26 25
-2 12 -5 20 -7 17z"/>
<path d="M2407 8383 c-4 -3 -7 -35 -7 -70 0 -63 0 -63 29 -63 16 0 33 6 39 13
15 17 8 107 -9 118 -17 10 -43 12 -52 2z m48 -33 c0 -8 -8 -16 -17 -18 -13 -2
-18 3 -18 18 0 15 5 20 18 18 9 -2 17 -10 17 -18z m3 -62 c-5 -34 -38 -37 -38
-4 0 20 5 26 21 26 15 0 20 -5 17 -22z"/>
<path d="M2867 8383 c-4 -3 -6 -36 -6 -72 1 -36 4 -55 6 -41 7 41 20 44 37 11
9 -17 21 -31 27 -31 6 0 6 7 -1 20 -6 10 -8 37 -4 59 5 33 3 41 -14 50 -24 13
-36 14 -45 4z m43 -38 c0 -18 -5 -25 -20 -25 -20 0 -28 28 -13 43 15 16 33 6
33 -18z"/>
<path d="M3450 8319 c0 -40 2 -70 5 -68 9 9 12 130 4 135 -5 3 -9 -27 -9 -67z"/>
<path d="M9389 8368 c-2 -23 2 -73 7 -90 14 -47 22 5 15 95 -1 12 -21 8 -22
-5z"/>
<path d="M8931 8341 c-23 -42 -6 -82 34 -80 18 0 18 1 -3 10 -28 11 -24 33 7
37 16 3 21 9 19 25 -4 30 -43 35 -57 8z m47 -9 c2 -7 -6 -12 -17 -12 -21 0
-27 11 -14 24 9 9 26 2 31 -12z"/>
<path d="M9027 8354 c-14 -14 -6 -43 13 -49 11 -3 20 -13 20 -21 0 -11 -6 -13
-21 -9 -15 5 -19 4 -15 -4 11 -17 46 -13 53 5 4 11 -3 23 -20 36 -15 11 -24
24 -21 29 3 6 12 5 22 -3 13 -11 14 -11 10 2 -5 17 -30 25 -41 14z"/>
<path d="M9112 8348 c-17 -17 -15 -63 3 -78 18 -15 47 -10 53 10 4 13 3 13
-11 2 -22 -18 -37 -7 -37 28 0 30 14 47 25 30 10 -16 25 -12 19 5 -7 18 -35
20 -52 3z"/>
<path d="M9197 8353 c-11 -10 -8 -93 3 -93 6 0 10 17 10 38 0 21 5 43 12 50 9
9 9 12 -3 12 -9 0 -19 -3 -22 -7z"/>
<path d="M9297 8354 c-11 -11 -8 -134 3 -134 6 0 10 9 10 19 0 13 8 21 23 23
19 3 22 9 22 48 0 41 -2 45 -25 48 -14 2 -29 0 -33 -4z m53 -34 c0 -29 -11
-50 -26 -50 -14 0 -21 60 -8 73 11 11 34 -5 34 -23z"/>
<path d="M9441 8310 c0 -40 2 -50 9 -38 6 10 7 31 1 55 -9 38 -9 38 -10 -17z"/>
<path d="M9482 8340 c-1 -14 5 -38 12 -55 l14 -30 11 28 c20 50 25 81 12 73
-6 -4 -11 -16 -11 -27 0 -28 -14 -23 -27 9 l-11 27 0 -25z"/>
<path d="M9572 8348 c-7 -7 -12 -24 -12 -38 0 -14 5 -31 12 -38 14 -14 48 -16
48 -3 0 5 -8 8 -17 7 -10 0 -19 7 -21 17 -3 13 3 17 22 17 27 0 31 7 20 34 -7
19 -35 21 -52 4z m38 -19 c0 -5 -7 -9 -15 -9 -15 0 -20 12 -9 23 8 8 24 -1 24
-14z"/>
<path d="M9802 8348 c-7 -7 -12 -24 -12 -38 0 -14 5 -31 12 -38 14 -14 48 -16
48 -3 0 5 -8 8 -17 7 -10 0 -19 7 -21 17 -3 13 3 17 22 17 15 0 26 6 26 13 0
16 -20 37 -35 37 -6 0 -16 -5 -23 -12z m38 -19 c0 -5 -7 -9 -15 -9 -15 0 -20
12 -9 23 8 8 24 -1 24 -14z"/>
<path d="M9886 8343 c-5 -12 1 -23 19 -36 29 -21 24 -41 -8 -31 -17 5 -19 3
-11 -6 17 -18 49 -8 52 17 2 14 -3 23 -17 28 -21 6 -26 16 -14 28 3 4 13 1 21
-6 13 -10 14 -9 10 3 -7 22 -44 24 -52 3z"/>
<path d="M9981 8346 c-19 -22 -10 -80 13 -84 10 -2 23 2 30 9 8 9 8 10 -2 5
-15 -9 -44 12 -36 25 3 5 16 9 30 9 26 0 32 18 12 38 -16 16 -33 15 -47 -2z
m36 -22 c-3 -4 -14 -3 -24 0 -15 6 -15 8 -3 16 16 10 39 -4 27 -16z"/>
<path d="M10070 8343 c-11 -14 -11 -15 -1 -6 14 12 41 7 41 -7 0 -4 -12 -11
-26 -14 -34 -9 -30 -49 5 -54 33 -5 40 7 32 53 -7 44 -30 57 -51 28z m33 -64
c-17 -17 -37 -1 -22 17 8 10 15 12 23 4 7 -7 7 -13 -1 -21z"/>
<path d="M10146 8343 c-3 -10 -1 -34 3 -53 l9 -35 1 37 c1 20 6 40 11 43 15 9
12 25 -4 25 -8 0 -17 -8 -20 -17z"/>
<path d="M10212 8348 c-17 -17 -15 -63 3 -78 18 -15 47 -10 53 10 4 13 3 13
-11 2 -22 -18 -37 -7 -37 27 0 36 8 43 32 30 16 -9 19 -8 16 3 -6 18 -40 22
-56 6z"/>
<path d="M2523 8343 c-21 -8 -14 -25 7 -18 11 3 20 2 20 -4 0 -5 -9 -12 -19
-16 -21 -6 -34 -31 -25 -46 3 -5 19 -9 35 -9 30 0 30 1 27 47 -3 48 -15 59
-45 46z m30 -68 c-5 -16 -33 -21 -33 -7 0 13 22 32 31 26 5 -2 6 -11 2 -19z"/>
<path d="M2613 8343 c-20 -8 -15 -41 7 -48 11 -3 20 -13 20 -22 0 -11 -7 -14
-27 -9 -21 5 -24 4 -13 -4 19 -13 47 -13 55 0 3 5 -5 21 -19 34 -31 28 -33 40
-5 33 12 -3 19 -1 16 6 -4 13 -18 17 -34 10z"/>
<path d="M2736 8334 c-37 -36 -7 -97 37 -76 21 11 20 11 -5 6 -26 -6 -28 -4
-28 28 0 41 8 52 27 36 7 -6 17 -8 20 -4 7 7 -14 26 -29 26 -4 0 -14 -7 -22
-16z"/>
<path d="M2966 8334 c-33 -32 -10 -92 31 -81 14 4 13 5 -4 6 -34 2 -32 41 2
41 29 0 36 34 9 44 -21 8 -20 8 -38 -10z m34 -15 c0 -5 -7 -9 -15 -9 -15 0
-20 12 -9 23 8 8 24 -1 24 -14z"/>
<path d="M3049 8334 c-11 -14 -9 -19 14 -36 35 -26 35 -42 0 -34 -21 5 -24 4
-13 -4 40 -26 68 11 30 40 -13 10 -20 22 -16 29 6 9 11 9 22 0 8 -7 14 -7 14
-1 0 5 -7 13 -16 16 -21 8 -20 8 -35 -10z"/>
<path d="M3147 8339 c-26 -15 -23 -76 4 -84 11 -4 23 -4 26 -1 4 3 -1 6 -10 6
-13 0 -17 9 -17 34 0 36 14 55 26 35 3 -6 0 -15 -7 -20 -10 -6 -8 -9 9 -9 27
0 30 25 4 39 -11 6 -24 6 -35 0z"/>
<path d="M3229 8334 c-11 -13 -9 -14 14 -9 17 5 27 3 27 -4 0 -6 -11 -14 -26
-17 -39 -10 -29 -48 14 -52 31 -3 32 -2 32 32 0 32 -20 66 -39 66 -5 0 -14 -7
-22 -16z m39 -56 c-6 -18 -28 -21 -28 -4 0 9 7 16 16 16 9 0 14 -5 12 -12z"/>
<path d="M3377 8338 c-26 -14 -23 -75 4 -83 12 -4 26 -2 31 3 8 8 4 9 -10 5
-17 -4 -23 1 -28 21 -8 33 12 62 32 45 9 -7 14 -8 14 -1 0 15 -24 21 -43 10z"/>
<path d="M3488 8338 c7 -7 12 -29 12 -50 0 -21 5 -38 10 -38 13 0 13 56 0 81
-6 10 -16 19 -22 19 -9 0 -9 -3 0 -12z"/>
<path d="M9250 8305 c0 -25 5 -45 10 -45 6 0 10 20 10 45 0 25 -4 45 -10 45
-5 0 -10 -20 -10 -45z"/>
<path d="M2680 8295 c0 -25 5 -45 10 -45 6 0 10 20 10 45 0 25 -4 45 -10 45
-5 0 -10 -20 -10 -45z"/>
<path d="M3303 8301 c3 -48 17 -67 17 -23 0 16 3 37 6 46 4 11 1 16 -10 16
-12 0 -15 -9 -13 -39z"/>
<path d="M2406 8153 c-10 -11 -7 -133 4 -133 6 0 10 17 11 38 l1 37 15 -37
c14 -35 33 -51 33 -29 0 5 5 22 12 38 l12 28 6 -40 c6 -35 7 -31 9 28 1 78
-13 88 -31 22 -7 -25 -15 -45 -19 -45 -3 0 -12 20 -19 45 -13 46 -22 59 -34
48z"/>
<path d="M2691 8089 c1 -57 3 -66 8 -39 14 71 41 77 41 9 0 -21 5 -39 10 -39
6 0 10 17 10 39 0 39 -17 64 -41 59 -8 -2 -14 5 -14 14 0 9 -4 20 -8 24 -4 4
-6 -26 -6 -67z"/>
<path d="M2920 8131 c0 -13 -8 -21 -22 -23 -20 -3 -23 -9 -23 -43 0 -32 4 -40
20 -43 12 -2 16 0 9 5 -27 20 -26 73 2 73 10 0 14 -12 14 -40 0 -22 5 -40 10
-40 6 0 10 28 10 65 0 37 -4 65 -10 65 -5 0 -10 -9 -10 -19z"/>
<path d="M2637 8133 c-9 -8 -9 -76 -1 -97 12 -31 19 -15 18 39 -1 57 -5 70
-17 58z"/>
<path d="M2550 8105 c-6 -8 -10 -29 -8 -47 3 -29 7 -33 33 -35 20 -1 23 0 8 4
-33 7 -31 43 2 43 40 0 29 40 -12 46 -7 1 -17 -4 -23 -11z m40 -15 c0 -5 -7
-10 -15 -10 -8 0 -15 5 -15 10 0 6 7 10 15 10 8 0 15 -4 15 -10z"/>
<path d="M2785 8100 c-35 -39 11 -102 50 -70 20 16 19 55 -1 74 -20 21 -27 20
-49 -4z m45 -36 c0 -24 -5 -34 -15 -34 -20 0 -29 23 -21 55 9 36 36 21 36 -21z"/>
<path d="M760 7178 c-1 -7 -9 -74 -18 -149 -18 -136 -18 -137 -55 -171 -26
-25 -37 -44 -37 -64 0 -34 6 -44 40 -67 33 -23 64 -21 95 6 39 33 39 91 1 124
l-28 24 12 106 c14 137 20 163 34 163 15 0 62 -8 466 -80 190 -33 446 -78 570
-100 124 -22 405 -71 625 -110 220 -39 468 -82 550 -96 83 -14 154 -29 158
-33 4 -4 3 -48 -3 -97 -5 -49 -10 -181 -10 -294 0 -441 84 -835 266 -1246 30
-67 54 -126 54 -132 0 -6 -82 -57 -182 -115 -101 -57 -253 -145 -338 -194 -85
-49 -285 -165 -445 -257 -606 -350 -772 -446 -893 -517 -45 -27 -84 -49 -86
-49 -2 0 -30 -16 -62 -35 -32 -19 -63 -35 -69 -35 -14 0 -128 217 -121 229 3
5 30 19 61 31 30 12 55 25 55 29 -1 8 -236 181 -247 181 -5 0 -15 -57 -22
-127 -7 -71 -15 -141 -18 -156 l-6 -28 54 22 c30 12 61 23 70 26 12 3 32 -27
80 -122 35 -70 69 -129 75 -131 9 -4 141 69 529 294 72 42 200 116 285 165
447 258 565 326 670 387 63 37 207 120 320 185 113 65 234 135 270 155 36 21
169 98 295 170 127 73 233 135 237 139 3 3 -1 22 -11 41 -100 205 -178 449
-223 700 -20 111 -23 157 -23 423 0 255 -2 298 -15 302 -8 2 -96 18 -195 35
-99 17 -229 40 -290 50 -60 11 -150 26 -200 35 -180 31 -930 163 -1305 230
-569 101 -940 165 -954 165 -9 0 -16 -6 -16 -12z"/>
<path d="M5073 6903 c-56 -4 -72 -20 -25 -25 l27 -3 3 -98 c2 -72 6 -97 15
-94 8 2 13 36 15 100 3 95 3 97 27 97 29 0 41 15 19 24 -9 3 -19 5 -22 4 -4
-1 -31 -3 -59 -5z"/>
<path d="M6012 6898 c-7 -7 -12 -20 -12 -30 0 -10 -4 -18 -10 -18 -5 0 -10 -7
-10 -15 0 -8 5 -15 10 -15 6 0 10 -30 10 -71 0 -92 22 -91 27 1 2 36 9 68 16
72 9 5 9 10 -1 20 -17 17 -15 39 6 54 16 13 16 13 -3 14 -12 0 -26 -5 -33 -12z"/>
<path d="M5186 6842 c-3 -5 3 -40 14 -78 24 -84 25 -98 4 -119 -9 -9 -13 -19
-10 -23 17 -17 41 22 67 108 32 104 34 120 19 120 -12 0 -13 -4 -31 -70 l-12
-45 -16 52 c-18 57 -26 69 -35 55z"/>
<path d="M5343 6843 c-22 -4 -23 -8 -23 -115 0 -83 3 -109 13 -105 6 2 12 15
12 28 0 21 6 24 38 27 45 4 61 33 54 99 -7 68 -24 79 -94 66z m55 -25 c19 -19
15 -107 -4 -115 -32 -12 -49 11 -48 62 2 57 25 80 52 53z"/>
<path d="M5486 6828 c-16 -23 -21 -92 -10 -123 9 -24 49 -36 79 -25 37 14 30
30 -10 23 -30 -5 -36 -2 -44 18 -12 34 -6 39 45 39 48 0 55 11 33 53 -23 43
-68 50 -93 15z m62 -10 c21 -21 13 -38 -18 -38 -23 0 -30 5 -30 19 0 17 11 27
31 30 3 1 10 -4 17 -11z"/>
<path d="M5636 6834 c-27 -26 -19 -52 24 -79 46 -29 53 -55 15 -55 -14 0 -25
5 -25 10 0 6 -7 10 -16 10 -22 0 -12 -23 16 -37 40 -20 91 14 77 51 -4 9 -22
26 -42 37 -35 21 -45 44 -22 52 6 2 20 -2 29 -10 25 -23 41 -12 23 15 -19 26
-57 29 -79 6z"/>
<path d="M5850 6830 c-23 -23 -28 -105 -7 -131 48 -61 124 -5 110 83 -10 64
-62 89 -103 48z m58 -9 c19 -12 28 -87 12 -106 -46 -55 -92 46 -47 103 11 14
17 15 35 3z"/>
<path d="M5473 6443 l-53 -4 0 -215 0 -214 116 0 c114 0 115 0 112 23 -3 21
-8 22 -91 25 l-88 3 3 72 3 72 78 3 c74 3 78 4 75 25 -3 20 -9 22 -81 25 l-78
3 3 67 3 67 88 3 c77 2 87 5 87 21 0 19 -47 33 -100 29 -14 -1 -49 -3 -77 -5z"/>
<path d="M5773 6430 c-41 -24 -53 -48 -53 -103 0 -60 25 -88 105 -123 46 -19
71 -36 81 -55 25 -49 -10 -99 -69 -99 -31 0 -77 36 -77 61 0 14 -7 19 -30 19
-35 0 -36 -6 -13 -56 20 -41 75 -74 123 -74 102 0 160 93 114 182 -11 22 -35
39 -90 65 -83 38 -104 65 -88 111 20 57 105 55 130 -3 11 -27 20 -35 39 -35
29 0 30 8 11 55 -29 68 -118 95 -183 55z"/>
<path d="M6143 6442 l-113 -3 0 -214 0 -215 121 0 c119 0 120 0 117 23 -3 21
-8 22 -91 25 l-88 3 3 72 3 72 78 3 c74 3 78 4 75 25 -3 20 -9 22 -81 25 l-78
3 3 67 3 67 88 3 c78 2 87 5 87 22 0 10 -3 20 -7 22 -5 2 -59 2 -120 0z"/>
<path d="M6758 6442 l-68 -3 0 -214 0 -215 30 0 29 0 3 88 3 87 31 3 c38 4 44
-3 84 -100 30 -72 35 -78 61 -78 16 0 29 4 29 9 0 4 -16 43 -36 87 -29 61 -34
81 -25 93 55 75 65 125 37 180 -29 55 -66 68 -178 63z m115 -69 c11 -11 17
-31 17 -59 0 -56 -35 -86 -94 -82 l-41 3 -3 69 c-4 96 -2 100 56 91 26 -4 55
-14 65 -22z"/>
<path d="M7093 6434 c-18 -9 -43 -33 -55 -53 -20 -32 -23 -49 -23 -151 0 -97
3 -121 21 -155 56 -109 213 -96 251 20 12 38 7 55 -18 55 -14 0 -25 -13 -38
-44 -11 -24 -27 -46 -36 -50 -35 -13 -72 -6 -96 20 -23 24 -24 32 -24 149 0
117 1 125 24 149 18 19 35 26 63 26 32 0 41 -5 58 -32 11 -18 20 -41 20 -50 0
-12 8 -18 23 -18 33 0 36 6 25 50 -21 82 -117 124 -195 84z"/>
<path d="M7375 6442 c-3 -3 -5 -101 -5 -219 l0 -213 31 0 30 0 -3 95 c-4 111
-6 108 102 103 l65 -3 3 -97 3 -98 29 0 30 0 0 214 0 214 -25 4 c-13 3 -27 3
-30 0 -3 -3 -5 -45 -5 -94 l0 -88 -85 0 -85 0 0 89 c0 86 -1 89 -25 93 -13 3
-27 3 -30 0z"/>
<path d="M5090 6225 l0 -215 30 0 29 0 3 88 3 87 34 0 c34 0 36 -2 72 -85 33
-79 38 -85 68 -88 17 -2 31 -1 31 2 0 3 -18 45 -40 93 -40 85 -40 88 -22 103
30 23 42 54 42 104 0 100 -34 126 -165 126 l-85 0 0 -215z m183 144 c25 -31
22 -85 -8 -114 -18 -19 -35 -25 -70 -25 l-45 0 0 78 c0 43 3 82 8 86 14 15 96
-3 115 -25z"/>
<path d="M6447 6433 c-3 -5 -32 -96 -66 -203 -34 -107 -64 -201 -66 -207 -3
-9 6 -13 23 -13 25 0 30 6 46 55 l17 55 70 0 c76 0 68 6 99 -77 10 -27 18 -33
41 -33 26 0 28 2 19 23 -5 12 -37 109 -70 215 -57 179 -63 192 -85 192 -13 0
-26 -3 -28 -7z m63 -195 l19 -68 -55 0 c-30 0 -54 3 -54 6 0 7 38 139 47 164
6 18 16 -5 43 -102z"/>
<path d="M745 6230 c-432 -67 -732 -427 -712 -855 8 -177 59 -323 160 -457
178 -236 470 -363 749 -328 318 40 575 239 683 527 123 326 25 704 -239 924
-82 68 -241 150 -336 173 -85 20 -229 27 -305 16z"/>
<path d="M2457 5870 c-3 -12 -14 -20 -25 -20 -24 0 -37 -30 -28 -66 5 -19 13
-24 36 -24 l30 0 0 65 c0 67 -4 80 -13 45z m-2 -66 c0 -19 -5 -29 -15 -29 -16
0 -25 28 -16 51 10 25 31 10 31 -22z"/>
<path d="M2730 5825 c0 -38 3 -66 6 -62 4 3 7 31 7 62 0 31 -3 59 -7 62 -3 4
-6 -24 -6 -62z"/>
<path d="M1850 5820 l0 -60 38 1 c30 2 32 3 10 6 -27 4 -28 7 -28 59 0 30 -4
54 -10 54 -6 0 -10 -27 -10 -60z"/>
<path d="M2268 5863 c-7 -12 3 -103 11 -103 8 0 8 96 0 105 -4 3 -9 3 -11 -2z"/>
<path d="M1956 5847 c-12 -9 -17 -24 -14 -47 3 -31 6 -35 33 -35 27 0 30 3 33
37 4 44 -23 66 -52 45z m40 -31 c7 -29 -1 -46 -21 -46 -8 0 -17 5 -20 11 -11
16 4 59 20 59 8 0 17 -11 21 -24z"/>
<path d="M2056 5850 c-15 -5 -20 -17 -21 -48 -2 -52 13 -56 17 -5 4 52 28 56
28 4 0 -23 5 -41 10 -41 14 0 12 76 -2 88 -7 5 -22 6 -32 2z"/>
<path d="M2220 5811 c0 -30 2 -52 5 -49 9 9 12 77 3 90 -4 8 -8 -10 -8 -41z"/>
<path d="M2319 5838 c-4 -16 -4 -39 -1 -53 3 -20 10 -25 33 -25 28 0 29 1 28
48 l-2 47 -6 -40 c-9 -57 -34 -54 -41 5 -5 39 -6 41 -11 18z"/>
<path d="M2568 5852 c-11 -2 -19 -13 -19 -28 -1 -13 -2 -30 -3 -36 -1 -7 0
-17 3 -23 3 -5 8 8 11 30 3 27 10 40 20 40 10 0 17 -14 21 -40 l6 -40 2 46 c1
48 -8 59 -41 51z"/>
<path d="M2653 5853 c-22 -8 -14 -25 7 -18 28 9 26 -18 -2 -30 -34 -15 -29
-39 10 -43 31 -3 32 -2 32 37 0 41 -20 64 -47 54z m27 -68 c0 -8 -7 -15 -15
-15 -16 0 -20 12 -8 23 11 12 23 8 23 -8z"/>
<path d="M2124 5836 c-3 -8 -4 -27 -2 -43 2 -20 9 -29 26 -31 12 -2 22 -10 22
-17 0 -7 -10 -15 -22 -18 -20 -3 -21 -4 -5 -11 31 -14 47 11 47 75 0 59 0 59
-30 59 -17 0 -33 -6 -36 -14z m49 -23 c6 -32 1 -43 -19 -43 -9 0 -14 11 -14
35 0 43 25 48 33 8z"/>
<path d="M2500 5806 c0 -30 4 -45 10 -41 6 4 9 22 5 43 -8 53 -15 52 -15 -2z"/>
<path d="M11378 5722 l-118 -119 0 -310 c0 -251 3 -313 14 -329 14 -18 29 -19
311 -19 282 0 297 1 311 19 11 16 14 92 14 428 0 395 -1 409 -20 428 -19 19
-33 20 -207 20 l-186 0 -119 -118z m500 86 c17 -17 17 -819 0 -836 -17 -17
-569 -17 -586 0 -9 9 -12 92 -12 314 l0 302 105 4 c80 2 108 7 115 18 5 8 10
59 10 113 l0 97 178 0 c125 0 182 -4 190 -12z m-392 -185 c-4 -9 -30 -13 -98
-13 l-93 0 95 95 95 96 3 -82 c2 -45 1 -88 -2 -96z"/>
<path d="M11630 5680 c0 -6 30 -10 69 -10 39 0 73 5 76 10 4 6 -22 10 -69 10
-44 0 -76 -4 -76 -10z"/>
<path d="M11630 5560 c0 -6 30 -10 70 -10 40 0 70 4 70 10 0 6 -30 10 -70 10
-40 0 -70 -4 -70 -10z"/>
<path d="M11510 5424 c-72 -31 -120 -102 -120 -178 0 -53 14 -89 52 -134 26
-31 33 -49 29 -79 -1 -7 3 -13 9 -13 22 0 8 56 -30 112 -33 50 -40 69 -40 110
0 67 29 121 83 153 111 64 251 1 264 -119 8 -67 -4 -110 -42 -156 -34 -40 -48
-100 -25 -100 6 0 10 13 10 30 0 18 11 42 28 62 71 82 69 201 -5 269 -62 59
-141 74 -213 43z"/>
<path d="M11520 5233 c0 -12 12 -31 28 -43 24 -19 28 -30 33 -93 l5 -72 2 72
c2 64 5 74 25 84 28 15 37 28 36 54 0 19 -1 19 -9 -2 -20 -50 -79 -53 -105 -5
-13 25 -14 25 -15 5z"/>
<path d="M9457 5727 c-18 -56 -22 -99 -7 -59 12 28 50 30 57 2 3 -11 10 -20
15 -20 6 0 8 6 6 13 -3 6 -13 36 -22 65 -10 28 -21 52 -25 52 -4 0 -15 -24
-24 -53z m33 -7 c0 -11 -4 -20 -10 -20 -5 0 -10 9 -10 20 0 11 5 20 10 20 6 0
10 -9 10 -20z"/>
<path d="M9970 5714 c0 -79 11 -81 13 -3 2 41 6 55 18 57 23 4 31 -24 13 -42
-13 -14 -13 -19 1 -46 8 -16 20 -30 26 -30 6 0 7 5 2 13 -4 6 -8 35 -8 62 0
49 -1 50 -32 53 l-33 3 0 -67z"/>
<path d="M10562 5715 c1 -56 2 -62 7 -30 4 27 12 41 24 43 14 3 17 -4 17 -37
0 -23 5 -41 10 -41 14 0 13 73 -1 87 -6 6 -18 9 -25 6 -8 -3 -18 5 -23 18 -7
18 -10 7 -9 -46z"/>
<path d="M9638 5758 c-6 -18 3 -108 11 -108 8 0 8 106 0 115 -4 3 -9 0 -11 -7z"/>
<path d="M9556 5734 c-32 -32 -10 -90 30 -82 10 2 20 10 22 18 4 13 3 13 -11
2 -22 -19 -37 -7 -37 29 0 22 5 29 19 29 11 0 22 -6 24 -12 4 -10 6 -10 6 -1
1 7 -8 17 -18 23 -15 7 -23 6 -35 -6z"/>
<path d="M9745 5734 c-34 -35 3 -103 43 -78 23 15 27 58 7 78 -9 9 -20 16 -25
16 -5 0 -16 -7 -25 -16z m43 -43 c-2 -15 -9 -26 -18 -26 -16 0 -25 37 -16 62
10 25 38 -5 34 -36z"/>
<path d="M9860 5740 c0 -5 5 -10 10 -10 6 0 10 -18 10 -41 0 -24 4 -38 10 -34
16 10 12 62 -6 79 -18 19 -24 20 -24 6z"/>
<path d="M10164 5733 c-15 -16 -15 -18 10 -38 33 -26 33 -39 0 -31 -17 5 -23
3 -19 -4 3 -5 17 -10 31 -10 30 0 33 34 4 50 -11 6 -20 16 -20 22 0 5 9 8 20
5 23 -6 27 8 5 17 -8 3 -22 -2 -31 -11z"/>
<path d="M10245 5733 c-31 -30 -12 -84 30 -82 19 0 19 1 -2 9 -31 13 -30 40 2
40 18 0 25 5 25 19 0 24 -36 34 -55 14z m35 -13 c0 -5 -7 -10 -15 -10 -8 0
-15 5 -15 10 0 6 7 10 15 10 8 0 15 -4 15 -10z"/>
<path d="M10343 5743 c-7 -2 -13 -9 -13 -15 0 -7 5 -6 14 1 11 9 16 9 22 0 4
-7 2 -15 -4 -17 -20 -6 -43 -34 -39 -46 2 -6 18 -12 35 -14 31 -3 32 -2 32 35
0 22 -5 44 -12 51 -13 13 -16 13 -35 5z m27 -63 c0 -11 -7 -20 -15 -20 -27 0
-18 30 13 39 1 1 2 -8 2 -19z"/>
<path d="M10486 5737 c-12 -9 -17 -24 -14 -47 2 -28 8 -36 27 -38 13 -2 28 2
35 8 8 9 4 10 -16 5 -28 -7 -30 -4 -30 30 0 34 2 37 27 31 29 -8 33 -1 6 13
-13 7 -23 6 -35 -2z"/>
<path d="M9690 5694 c0 -25 4 -43 8 -40 12 7 14 86 2 86 -6 0 -10 -21 -10 -46z"/>
<path d="M9830 5693 c0 -55 5 -54 14 5 4 26 2 42 -4 42 -5 0 -10 -21 -10 -47z"/>
<path d="M10064 5713 c-9 -33 6 -57 37 -60 l24 -3 -22 10 c-31 13 -30 40 2 40
18 0 25 5 25 20 0 16 -7 20 -30 20 -24 0 -31 -5 -36 -27z m46 7 c0 -5 -7 -10
-15 -10 -8 0 -15 5 -15 10 0 6 7 10 15 10 8 0 15 -4 15 -10z"/>
<path d="M10410 5695 c0 -25 4 -45 9 -45 5 0 11 20 13 45 2 31 -1 45 -9 45 -9
0 -13 -16 -13 -45z"/>
<path d="M1857 5653 c-11 -10 -8 -123 3 -123 6 0 10 12 10 26 0 31 20 28 35
-4 5 -12 13 -22 17 -22 11 0 10 8 -3 32 -8 14 -8 23 0 31 6 6 11 19 11 29 0
26 -55 50 -73 31z m53 -33 c0 -23 -29 -35 -36 -15 -4 8 -4 22 0 30 7 20 36 8
36 -15z"/>
<path d="M2450 5625 c-1 -22 -3 -52 -4 -67 -1 -16 2 -28 6 -28 4 0 8 12 8 28
1 65 35 67 43 2 3 -30 4 -28 5 13 2 41 -1 47 -18 47 -12 0 -24 10 -30 23 -7
19 -9 16 -10 -18z"/>
<path d="M1965 5614 c-10 -10 -15 -29 -13 -48 3 -27 7 -31 33 -33 20 -1 23 0
8 4 -32 6 -30 33 2 33 29 0 33 21 9 44 -19 20 -19 20 -39 0z m35 -19 c0 -8 -7
-15 -15 -15 -8 0 -15 7 -15 15 0 8 7 15 15 15 8 0 15 -7 15 -15z"/>
<path d="M2055 5616 c-20 -15 -15 -46 9 -46 7 0 17 -7 20 -16 5 -13 1 -15 -20
-10 -17 5 -23 3 -19 -4 3 -5 17 -10 31 -10 30 0 34 36 4 45 -11 3 -20 13 -20
21 0 11 6 13 22 8 20 -6 21 -5 9 10 -16 19 -13 19 -36 2z"/>
<path d="M2135 5614 c-10 -10 -15 -29 -13 -48 3 -27 7 -31 33 -33 20 -1 23 0
8 4 -32 6 -30 33 2 33 18 0 25 5 25 20 0 29 -34 44 -55 24z m35 -19 c0 -8 -7
-15 -15 -15 -8 0 -15 7 -15 15 0 8 7 15 15 15 8 0 15 -7 15 -15z"/>
<path d="M2224 5615 c-18 -15 -18 -15 9 -9 35 8 37 -13 2 -26 -15 -6 -25 -17
-25 -30 0 -16 7 -20 35 -20 33 0 35 2 35 34 0 19 -7 42 -16 50 -19 19 -16 19
-40 1z m36 -60 c0 -8 -7 -15 -15 -15 -8 0 -15 7 -15 15 0 8 7 15 15 15 8 0 15
-7 15 -15z"/>
<path d="M2308 5585 c-2 -19 0 -41 4 -48 5 -7 8 2 8 24 0 19 5 40 12 47 9 9 8
12 -4 12 -11 0 -17 -11 -20 -35z"/>
<path d="M2366 5608 c-3 -7 -6 -20 -9 -28 -7 -25 12 -50 38 -50 14 0 25 4 25
8 0 5 -10 8 -22 8 -17 -1 -24 5 -26 23 -5 33 13 48 34 30 15 -12 17 -12 12 1
-6 19 -47 26 -52 8z"/>
<path d="M8295 4948 c-9 -16 -15 -31 -13 -34 3 -2 10 7 18 20 11 21 16 23 38
15 36 -14 39 -4 4 14 -28 14 -30 13 -47 -15z"/>
<path d="M8411 4917 c2 -1 13 -9 24 -17 19 -14 19 -14 6 3 -7 9 -18 17 -24 17
-6 0 -8 -1 -6 -3z"/>
<path d="M8256 4883 c-6 -14 -5 -15 5 -6 7 7 10 15 7 18 -3 3 -9 -2 -12 -12z"/>
<path d="M8496 4865 c10 -8 23 -15 28 -15 6 0 1 7 -10 15 -10 8 -23 15 -28 15
-6 0 -1 -7 10 -15z"/>
<path d="M8260 4839 c0 -5 5 -7 10 -4 6 3 10 8 10 11 0 2 -4 4 -10 4 -5 0 -10
-5 -10 -11z"/>
<path d="M8600 4805 c0 -2 12 -10 28 -18 70 -38 99 -54 125 -71 15 -10 30 -16
33 -14 4 5 -60 48 -72 48 -2 0 -21 10 -42 23 -38 24 -72 39 -72 32z"/>
<path d="M8200 4780 c0 -5 5 -10 10 -10 6 0 10 5 10 10 0 6 -4 10 -10 10 -5 0
-10 -4 -10 -10z"/>
<path d="M8090 4683 c-23 -24 -23 -25 -3 -15 22 12 38 30 31 37 -2 2 -14 -8
-28 -22z"/>
<path d="M8790 4690 c-9 -6 -10 -10 -3 -10 6 0 15 5 18 10 8 12 4 12 -15 0z"/>
<path d="M8840 4660 c13 -11 48 -32 79 -46 31 -15 58 -30 61 -33 11 -14 62
-42 67 -37 3 3 -6 11 -21 17 -14 7 -26 15 -26 19 0 4 -30 22 -67 40 -38 19
-74 40 -81 47 -7 7 -18 13 -24 13 -6 0 -1 -9 12 -20z"/>
<path d="M8044 4628 l-19 -23 23 19 c12 11 22 21 22 23 0 8 -8 2 -26 -19z"/>
<path d="M8681 4551 c-24 -33 -28 -56 -5 -26 20 26 36 55 30 55 -3 0 -14 -13
-25 -29z"/>
<path d="M7955 4540 c-10 -11 -16 -22 -14 -24 2 -2 12 7 22 20 22 29 17 32 -8
4z"/>
<path d="M9074 4525 c11 -8 25 -15 30 -15 6 0 2 7 -8 15 -11 8 -25 15 -30 15
-6 0 -2 -7 8 -15z"/>
<path d="M9144 4485 c30 -27 36 -30 36 -15 0 6 -6 10 -14 10 -8 0 -16 7 -20
15 -3 8 -11 15 -17 15 -7 0 0 -11 15 -25z"/>
<path d="M7869 4460 c-31 -26 -15 -26 18 0 14 11 21 20 15 20 -5 0 -20 -9 -33
-20z"/>
<path d="M9197 4463 c-4 -7 5 -15 23 -22 18 -6 28 -6 25 -1 -4 6 -12 10 -20
10 -7 0 -15 5 -17 12 -3 9 -6 9 -11 1z"/>
<path d="M8600 4439 c-7 -12 -18 -18 -26 -15 -8 3 -12 1 -9 -4 3 -5 1 -20 -6
-32 -6 -13 5 -5 24 17 20 22 36 43 37 48 0 13 -9 7 -20 -14z"/>
<path d="M9295 4400 c3 -5 11 -10 16 -10 6 0 7 5 4 10 -3 6 -11 10 -16 10 -6
0 -7 -4 -4 -10z"/>
<path d="M7785 4390 c-3 -5 -1 -10 4 -10 6 0 11 5 11 10 0 6 -2 10 -4 10 -3 0
-8 -4 -11 -10z"/>
<path d="M7720 4339 l-35 -30 38 22 c37 21 56 39 40 39 -4 0 -24 -14 -43 -31z"/>
<path d="M8493 4322 c-24 -23 -43 -45 -43 -49 0 -4 -8 -16 -17 -27 -10 -12 11
8 45 44 34 35 61 67 60 70 -2 3 -22 -14 -45 -38z"/>
<path d="M9409 4330 c19 -16 38 -27 41 -25 4 3 13 -2 20 -10 7 -8 21 -15 32
-15 12 0 17 -4 12 -12 -4 -7 -3 -8 5 -4 14 9 5 26 -13 26 -8 0 -19 7 -26 15
-7 8 -20 15 -30 15 -9 0 -27 9 -40 20 -13 11 -26 20 -29 20 -3 -1 9 -14 28
-30z"/>
<path d="M7735 4310 c-3 -5 -1 -10 4 -10 6 0 11 5 11 10 0 6 -2 10 -4 10 -3 0
-8 -4 -11 -10z"/>
<path d="M7660 4290 c0 -5 5 -10 11 -10 5 0 7 5 4 10 -3 6 -8 10 -11 10 -2 0
-4 -4 -4 -10z"/>
<path d="M9540 4262 c0 -11 119 -76 126 -70 2 3 -8 11 -24 19 -15 7 -44 24
-64 36 -21 13 -38 19 -38 15z"/>
<path d="M7554 4225 c-10 -8 -14 -14 -9 -14 6 0 19 6 29 14 11 8 15 15 10 15
-6 0 -19 -7 -30 -15z"/>
<path d="M8365 4210 c-3 -5 -1 -10 4 -10 6 0 11 5 11 10 0 6 -2 10 -4 10 -3 0
-8 -4 -11 -10z"/>
<path d="M7500 4194 c-17 -9 -20 -14 -9 -14 9 0 22 7 29 15 15 18 13 18 -20
-1z"/>
<path d="M9674 4179 c-4 -7 -3 -9 4 -5 6 3 13 2 17 -4 9 -14 45 -32 45 -23 0
5 -13 16 -29 26 -22 13 -32 14 -37 6z"/>
<path d="M8349 4163 c-13 -17 -13 -17 6 -3 11 8 22 16 24 17 2 2 0 3 -6 3 -6
0 -17 -8 -24 -17z"/>
<path d="M7458 4153 c7 -3 16 -2 19 1 4 3 -2 6 -13 5 -11 0 -14 -3 -6 -6z"/>
<path d="M9750 4136 c0 -2 16 -13 35 -25 19 -11 35 -17 35 -13 0 4 -13 15 -29
25 -29 17 -41 21 -41 13z"/>
<path d="M8280 4119 c0 -5 5 -7 10 -4 6 3 10 8 10 11 0 2 -4 4 -10 4 -5 0 -10
-5 -10 -11z"/>
<path d="M7311 4090 c-31 -26 -17 -26 16 0 14 11 22 20 17 20 -5 -1 -20 -10
-33 -20z"/>
<path d="M8252 4078 c-7 -7 -12 -16 -12 -21 0 -5 7 -1 16 8 9 9 14 18 12 20
-2 3 -10 -1 -16 -7z"/>
<path d="M9865 4066 c22 -14 47 -25 55 -25 13 1 13 1 0 6 -8 3 -22 11 -30 18
-8 7 -26 16 -40 20 -18 5 -13 -1 15 -19z"/>
<path d="M7250 4065 c-15 -8 -19 -14 -10 -14 18 -1 46 16 40 23 -3 2 -16 -2
-30 -9z"/>
<path d="M8170 4049 c0 -5 5 -7 10 -4 6 3 10 8 10 11 0 2 -4 4 -10 4 -5 0 -10
-5 -10 -11z"/>
<path d="M7270 4040 c-9 -6 -10 -10 -3 -10 6 0 15 5 18 10 8 12 4 12 -15 0z"/>
<path d="M8210 4039 c0 -5 5 -7 10 -4 6 3 10 8 10 11 0 2 -4 4 -10 4 -5 0 -10
-5 -10 -11z"/>
<path d="M9947 4029 c7 -7 15 -10 18 -7 3 3 -2 9 -12 12 -14 6 -15 5 -6 -5z"/>
<path d="M7228 4023 c7 -3 16 -2 19 1 4 3 -2 6 -13 5 -11 0 -14 -3 -6 -6z"/>
<path d="M10000 3990 c8 -5 20 -10 25 -10 6 0 3 5 -5 10 -8 5 -19 10 -25 10
-5 0 -3 -5 5 -10z"/>
<path d="M7220 3964 c0 -10 5 -26 10 -34 8 -11 9 -7 4 15 -8 37 -14 45 -14 19z"/>
<path d="M8115 3970 c-3 -5 -2 -10 4 -10 5 0 13 5 16 10 3 6 2 10 -4 10 -5 0
-13 -4 -16 -10z"/>
<path d="M10045 3960 c4 -6 11 -8 16 -5 14 9 11 15 -7 15 -8 0 -12 -5 -9 -10z"/>
<path d="M5420 3808 c-63 -174 -120 -333 -155 -428 -13 -36 -46 -130 -75 -210
-28 -80 -55 -154 -60 -165 -9 -24 -83 -224 -139 -380 -21 -60 -53 -148 -70
-195 -18 -47 -45 -121 -61 -165 -15 -44 -47 -132 -70 -195 -23 -63 -52 -144
-65 -180 -44 -122 -93 -255 -125 -340 -17 -47 -35 -96 -40 -110 -4 -14 -29
-83 -55 -155 -26 -71 -48 -139 -49 -149 -1 -17 19 -26 124 -59 167 -52 170
-54 170 -76 0 -25 45 -61 76 -61 36 0 54 10 70 41 18 36 10 73 -23 99 -33 25
-64 25 -96 0 -33 -27 -42 -26 -174 15 -92 29 -113 39 -113 55 0 10 14 56 31
102 17 46 50 137 74 203 64 180 199 550 262 720 31 83 68 186 83 230 26 75
126 351 225 620 25 66 58 158 74 205 58 163 68 185 88 183 10 -1 79 -17 154
-36 489 -126 1008 -124 1494 4 44 12 95 22 114 23 33 1 35 -1 58 -64 13 -36
33 -92 45 -125 11 -33 51 -143 88 -245 38 -102 99 -268 135 -370 37 -102 78
-214 92 -250 13 -36 32 -90 43 -120 28 -85 50 -143 59 -165 5 -11 21 -51 34
-90 14 -38 44 -119 66 -180 22 -60 62 -171 89 -245 27 -74 52 -144 55 -155 3
-11 15 -45 27 -75 12 -30 26 -71 32 -90 5 -19 14 -39 19 -44 5 -6 9 -18 9 -28
0 -14 -25 -25 -115 -54 -63 -19 -122 -34 -132 -32 -12 2 -21 21 -31 61 -8 32
-18 57 -22 55 -4 -2 -55 -48 -113 -103 l-105 -101 146 -42 c80 -23 147 -40
148 -39 2 2 -3 25 -11 52 -25 81 -30 76 130 124 80 24 145 45 145 47 0 2 -4
13 -10 26 -5 13 -67 181 -136 373 -70 193 -139 384 -154 425 -15 41 -40 109
-55 150 -62 170 -240 660 -265 730 -31 84 -155 428 -205 565 -100 280 -199
551 -202 554 -2 3 -63 -10 -136 -27 -203 -48 -314 -63 -537 -69 -173 -4 -230
-2 -369 16 -134 17 -285 49 -416 86 -18 5 -26 -10 -75 -147z"/>
<path d="M10074 3948 c-4 -7 -3 -8 4 -4 7 4 12 3 12 -2 0 -6 7 -12 15 -16 22
-8 18 12 -4 24 -14 7 -22 7 -27 -2z"/>
<path d="M7265 3939 c-4 -6 -5 -12 -2 -15 2 -3 7 2 10 11 7 17 1 20 -8 4z"/>
<path d="M8050 3920 c0 -5 5 -10 10 -10 6 0 10 5 10 10 0 6 -4 10 -10 10 -5 0
-10 -4 -10 -10z"/>
<path d="M10140 3910 c20 -13 33 -13 25 0 -3 6 -14 10 -23 10 -15 0 -15 -2 -2
-10z"/>
<path d="M8015 3890 c-3 -5 -2 -10 4 -10 5 0 13 5 16 10 3 6 2 10 -4 10 -5 0
-13 -4 -16 -10z"/>
<path d="M10201 3872 c13 -10 35 -19 49 -20 18 -1 21 1 10 8 -8 5 -17 7 -21 4
-4 -2 -12 3 -19 11 -7 8 -19 15 -28 15 -10 0 -7 -6 9 -18z"/>
<path d="M7250 3875 c0 -5 5 -17 10 -25 5 -8 10 -10 10 -5 0 6 -5 17 -10 25
-5 8 -10 11 -10 5z"/>
<path d="M7959 3839 c-23 -19 -23 -20 -2 -10 12 6 25 16 28 21 10 16 -1 12
-26 -11z"/>
<path d="M10283 3833 c9 -2 17 -8 17 -13 0 -4 14 -13 30 -20 17 -7 30 -16 30
-20 0 -4 9 -10 20 -13 11 -3 20 -3 20 -1 0 9 -106 74 -120 73 -11 -1 -10 -3 3
-6z"/>
<path d="M7855 3810 c3 -5 8 -10 11 -10 2 0 4 5 4 10 0 6 -5 10 -11 10 -5 0
-7 -4 -4 -10z"/>
<path d="M7910 3810 c-9 -6 -10 -10 -3 -10 6 0 15 5 18 10 8 12 4 12 -15 0z"/>
<path d="M7857 3779 c7 -7 15 -10 18 -7 3 3 -2 9 -12 12 -14 6 -15 5 -6 -5z"/>
<path d="M7785 3760 c-3 -6 1 -7 9 -4 18 7 21 14 7 14 -6 0 -13 -4 -16 -10z"/>
<path d="M7300 3748 c0 -20 19 -72 25 -67 2 3 -2 23 -10 44 -8 22 -14 32 -15
23z"/>
<path d="M10425 3748 c11 -6 22 -14 25 -18 6 -9 50 -23 50 -17 0 6 -78 47 -88
47 -4 0 2 -6 13 -12z"/>
<path d="M7785 3730 c-3 -5 -2 -10 4 -10 5 0 13 5 16 10 3 6 2 10 -4 10 -5 0
-13 -4 -16 -10z"/>
<path d="M10506 3702 c-6 -10 64 -46 72 -38 3 3 -9 12 -27 19 -17 7 -28 16
-24 20 3 4 1 7 -5 7 -6 0 -13 -4 -16 -8z"/>
<path d="M7700 3679 c0 -5 5 -7 10 -4 6 3 10 8 10 11 0 2 -4 4 -10 4 -5 0 -10
-5 -10 -11z"/>
<path d="M7640 3650 c-9 -6 -10 -10 -3 -10 6 0 15 5 18 10 8 12 4 12 -15 0z"/>
<path d="M10591 3646 c10 -10 103 -56 113 -56 6 0 -9 10 -34 23 -25 12 -46 25
-48 30 -2 4 -11 7 -19 7 -9 0 -14 -2 -12 -4z"/>
<path d="M7545 3600 c-3 -5 -2 -10 4 -10 5 0 13 5 16 10 3 6 2 10 -4 10 -5 0
-13 -4 -16 -10z"/>
<path d="M10714 3579 c-4 -7 -3 -9 4 -5 5 3 12 3 14 -1 1 -5 19 -17 38 -27 43
-24 26 0 -19 27 -22 13 -32 14 -37 6z"/>
<path d="M7454 3564 c-18 -14 -18 -15 6 -8 14 3 32 10 40 15 12 7 11 8 -6 9
-11 0 -29 -7 -40 -16z"/>
<path d="M7408 3533 c7 -3 16 -2 19 1 4 3 -2 6 -13 5 -11 0 -14 -3 -6 -6z"/>
<path d="M10810 3525 c0 -5 65 -45 74 -45 13 0 5 18 -11 24 -10 3 -28 10 -40
16 -13 5 -23 8 -23 5z"/>
<path d="M7390 3491 c0 -6 5 -13 10 -16 6 -3 10 -17 10 -30 0 -13 5 -27 10
-30 13 -8 13 -1 -2 46 -10 35 -28 54 -28 30z"/>
<path d="M9760 3435 c-3 -26 -3 -73 0 -105 2 -18 5 -13 9 15 8 53 35 55 39 2
2 -20 6 -35 10 -33 4 2 6 23 4 45 -3 31 -8 41 -25 43 -13 2 -24 13 -28 28 -6
21 -7 22 -9 5z"/>
<path d="M2860 3375 l0 -65 33 1 c30 2 30 2 5 6 -35 5 -38 40 -6 52 l22 8 -23
6 c-30 7 -24 39 9 48 23 6 22 7 -7 8 l-33 1 0 -65z"/>
<path d="M3120 3375 c0 -38 3 -65 7 -62 7 8 5 119 -3 126 -2 2 -4 -26 -4 -64z"/>
<path d="M3770 3375 c0 -37 4 -65 10 -65 6 0 10 15 10 33 l1 32 19 -23 c10
-12 20 -28 23 -35 2 -6 7 -9 11 -5 4 3 2 16 -4 28 -9 18 -9 28 0 46 17 31 -1
54 -41 54 -29 0 -29 0 -29 -65z m58 27 c3 -17 -2 -22 -17 -22 -16 0 -21 6 -21
26 0 33 33 30 38 -4z"/>
<path d="M4360 3375 c0 -72 16 -89 21 -22 5 53 0 87 -12 87 -5 0 -9 -29 -9
-65z"/>
<path d="M7990 3376 c0 -37 4 -66 10 -66 6 0 10 11 10 24 0 19 6 25 28 28 24
3 27 7 27 38 0 33 -2 35 -37 38 l-38 3 0 -65z m59 40 c15 -18 3 -46 -20 -46
-14 0 -19 7 -19 30 0 32 19 40 39 16z"/>
<path d="M8193 3375 c0 -38 2 -53 4 -32 2 20 2 52 0 70 -2 17 -4 1 -4 -38z"/>
<path d="M8504 3432 c-18 -11 -26 -66 -15 -95 8 -21 17 -27 40 -27 33 0 41 14
41 69 0 52 -31 76 -66 53z m50 -34 c13 -36 0 -78 -23 -78 -31 0 -44 73 -19 98
17 17 31 10 42 -20z"/>
<path d="M9069 3418 c-1 -13 0 -40 1 -60 1 -28 -3 -38 -13 -38 -18 0 -32 49
-18 63 17 17 13 31 -5 17 -10 -9 -14 -26 -12 -49 3 -33 6 -36 36 -39 l32 -3 0
65 c0 37 -4 66 -10 66 -5 0 -10 -10 -11 -22z"/>
<path d="M9160 3375 c0 -37 4 -65 10 -65 6 0 10 14 10 30 0 17 4 30 9 30 5 0
14 -13 20 -30 5 -16 14 -30 20 -30 7 0 6 10 -1 30 -7 22 -7 34 2 45 19 23 -5
55 -40 55 l-30 0 0 -65z m55 30 c0 -11 -8 -21 -17 -23 -14 -3 -18 3 -18 23 0
20 4 26 18 23 9 -2 17 -12 17 -23z"/>
<path d="M10857 3411 c-20 -34 -21 -41 -6 -41 5 0 8 4 5 8 -3 5 4 18 14 30 21
23 25 32 12 32 -4 0 -15 -13 -25 -29z"/>
<path d="M8887 3423 c-9 -8 -9 -76 -1 -97 12 -31 19 -15 18 39 -1 56 -5 70
-17 58z"/>
<path d="M3442 3369 c4 -69 23 -75 23 -7 -1 32 -6 53 -14 56 -9 3 -11 -10 -9
-49z"/>
<path d="M3506 3397 c-12 -9 -17 -24 -14 -47 3 -31 6 -35 33 -35 27 0 30 3 33
37 4 44 -23 66 -52 45z m39 -42 c0 -39 -31 -48 -41 -11 -7 30 2 48 24 44 11
-2 17 -13 17 -33z"/>
<path d="M4057 3397 c-37 -30 -24 -88 20 -86 l28 1 -25 7 c-31 9 -33 34 -3 36
29 2 35 8 27 28 -8 22 -29 28 -47 14z m33 -17 c0 -5 -9 -10 -21 -10 -11 0 -17
5 -14 10 3 6 13 10 21 10 8 0 14 -4 14 -10z"/>
<path d="M4143 3393 c-17 -14 -17 -14 0 -9 34 11 39 -6 8 -25 -37 -23 -32 -49
10 -49 28 0 29 2 29 44 0 49 -17 64 -47 39z m37 -53 c0 -12 -28 -25 -36 -17
-9 9 6 27 22 27 8 0 14 -5 14 -10z"/>
<path d="M8106 3397 c-12 -9 -17 -24 -14 -47 3 -31 6 -35 33 -35 27 0 30 3 33
37 4 44 -23 66 -52 45z m37 -21 c9 -24 -4 -57 -22 -54 -29 6 -27 68 3 68 7 0
16 -6 19 -14z"/>
<path d="M8292 3399 c-19 -7 -23 -15 -20 -46 3 -33 7 -38 31 -41 15 -2 27 1
27 6 0 6 -9 8 -20 5 -17 -5 -20 0 -20 32 0 35 1 37 27 30 23 -5 25 -4 14 9 -8
9 -14 16 -15 15 0 0 -11 -4 -24 -10z"/>
<path d="M8706 3391 c-33 -36 -13 -82 34 -80 l25 1 -25 7 c-32 9 -34 37 -2 33
18 -3 22 2 22 21 0 31 -33 42 -54 18z m39 -11 c3 -5 -3 -10 -15 -10 -12 0 -18
5 -15 10 3 6 10 10 15 10 5 0 12 -4 15 -10z"/>
<path d="M8946 3397 c-12 -9 -17 -24 -14 -47 3 -31 7 -35 33 -37 28 -3 29 -2
7 7 -27 11 -24 35 4 35 25 0 30 31 6 44 -14 7 -24 7 -36 -2z m34 -17 c0 -5 -7
-10 -15 -10 -8 0 -15 5 -15 10 0 6 7 10 15 10 8 0 15 -4 15 -10z"/>
<path d="M9446 3394 c-31 -31 -17 -85 23 -83 23 2 24 2 4 6 -30 6 -30 31 -1
35 29 4 35 34 9 47 -15 8 -23 7 -35 -5z m34 -14 c0 -5 -7 -10 -15 -10 -8 0
-15 5 -15 10 0 6 7 10 15 10 8 0 15 -4 15 -10z"/>
<path d="M9685 3396 c-11 -8 -16 -23 -13 -46 2 -30 7 -35 31 -38 15 -2 27 1
27 6 0 5 -10 8 -22 8 -19 -1 -23 4 -23 29 0 25 4 30 23 29 25 -1 30 11 8 19
-8 3 -22 0 -31 -7z"/>
<path d="M2954 3385 c5 -11 8 -24 8 -30 0 -5 -3 -19 -8 -30 -7 -18 -6 -19 11
-5 14 11 19 12 22 3 3 -7 9 -13 14 -13 5 0 4 11 -2 24 -8 17 -8 29 0 45 7 12
8 21 2 21 -5 0 -11 -6 -14 -12 -3 -10 -8 -9 -22 2 -17 14 -18 13 -11 -5z"/>
<path d="M3030 3335 c0 -42 4 -64 10 -60 6 3 10 12 10 20 0 7 10 15 23 17 19
3 22 9 22 43 0 38 -2 40 -32 43 l-33 3 0 -66z m55 44 c11 -16 -4 -59 -19 -59
-16 0 -24 25 -18 53 5 19 27 23 37 6z"/>
<path d="M3170 3390 c0 -7 8 -9 19 -5 11 3 22 1 25 -4 4 -5 -4 -13 -16 -17
-47 -14 -44 -54 4 -54 28 0 29 1 26 43 -3 38 -6 42 -30 45 -16 2 -28 -2 -28
-8z m40 -55 c0 -8 -7 -15 -15 -15 -16 0 -20 12 -8 23 11 12 23 8 23 -8z"/>
<path d="M3257 3393 c-4 -7 -3 -30 4 -73 1 -8 5 3 8 24 8 55 31 60 31 7 0 -23
5 -41 10 -41 6 0 10 20 10 45 0 43 -1 45 -29 45 -17 0 -32 -3 -34 -7z"/>
<path d="M3354 3389 c-4 -7 0 -9 14 -5 30 10 35 -9 6 -23 -35 -16 -28 -45 11
-49 30 -3 31 -2 29 35 -1 21 -3 41 -3 46 -2 11 -49 8 -57 -4z m46 -49 c0 -12
-28 -25 -36 -17 -9 9 6 27 22 27 8 0 14 -5 14 -10z"/>
<path d="M3592 3353 c1 -48 1 -48 5 -8 3 22 10 43 16 47 8 5 6 8 -5 8 -15 0
-18 -8 -16 -47z"/>
<path d="M3646 3373 c4 -16 8 -45 9 -65 0 -21 3 -38 7 -38 7 0 22 49 32 105
l6 30 -12 -27 c-15 -35 -28 -36 -28 -3 0 14 -5 25 -11 25 -7 0 -8 -9 -3 -27z"/>
<path d="M3870 3384 c-21 -24 -1 -68 33 -72 15 -2 27 1 27 6 0 6 -8 8 -19 5
-10 -3 -22 0 -26 7 -9 15 -3 21 24 23 32 2 29 47 -3 47 -13 0 -29 -7 -36 -16z
m50 -3 c0 -12 -28 -22 -34 -12 -3 5 -3 11 1 15 9 9 33 7 33 -3z"/>
<path d="M3957 3393 c-13 -12 -7 -32 12 -38 11 -3 22 -13 25 -21 5 -13 1 -15
-20 -10 -17 5 -23 3 -19 -4 3 -5 17 -10 31 -10 30 0 33 34 4 50 -11 6 -20 15
-20 21 0 6 9 8 20 4 11 -4 20 -2 20 4 0 12 -43 15 -53 4z"/>
<path d="M4214 3360 c4 -51 16 -65 16 -19 0 19 5 40 12 47 9 9 7 12 -10 12
-19 0 -21 -5 -18 -40z"/>
<path d="M4277 3394 c-9 -9 -9 -47 -1 -68 7 -18 49 -22 59 -6 4 7 -2 9 -19 4
-24 -6 -26 -4 -26 30 0 38 15 47 39 24 11 -11 13 -10 9 2 -5 16 -49 26 -61 14z"/>
<path d="M4408 3355 c2 -25 8 -45 14 -45 12 0 6 82 -7 87 -6 2 -9 -15 -7 -42z"/>
<path d="M8230 3355 c0 -25 5 -45 10 -45 6 0 10 20 10 45 0 25 -4 45 -10 45
-5 0 -10 -20 -10 -45z"/>
<path d="M8361 3384 c-1 -12 4 -35 10 -53 9 -24 8 -35 -2 -48 -12 -14 -12 -16
1 -11 8 2 20 24 27 48 7 23 15 51 18 61 4 11 2 19 -4 19 -6 0 -11 -8 -11 -18
0 -32 -13 -34 -26 -5 -11 24 -12 25 -13 7z"/>
<path d="M8599 3398 c-5 -12 -2 -81 4 -85 4 -2 7 9 7 26 0 16 3 36 6 45 3 9 1
16 -5 16 -6 0 -11 -1 -12 -2z"/>
<path d="M8663 3355 c0 -27 2 -38 4 -22 2 15 2 37 0 50 -2 12 -4 0 -4 -28z"/>
<path d="M8789 3391 c-6 -53 3 -92 10 -47 8 55 31 60 31 7 0 -23 5 -41 11 -41
6 0 9 17 7 43 -3 38 -6 42 -30 45 -16 2 -28 -1 -29 -7z"/>
<path d="M9258 3374 c-16 -34 0 -58 38 -61 27 -2 27 -1 5 5 -34 10 -39 32 -7
32 21 0 26 5 26 25 0 36 -46 35 -62 -1z m47 6 c3 -5 -3 -10 -15 -10 -12 0 -18
5 -15 10 3 6 10 10 15 10 5 0 12 -4 15 -10z"/>
<path d="M9350 3380 c0 -10 9 -24 20 -30 11 -6 20 -16 20 -22 0 -5 -9 -8 -20
-5 -11 3 -20 1 -20 -4 0 -13 48 -11 56 3 4 6 -4 20 -19 33 -34 26 -34 39 -1
31 17 -5 23 -3 19 4 -3 5 -17 10 -31 10 -17 0 -24 -5 -24 -20z"/>
<path d="M9525 3390 c-4 -7 2 -9 19 -4 34 8 35 -13 1 -26 -15 -6 -25 -17 -25
-30 0 -16 7 -20 36 -20 l35 0 -3 43 c-3 37 -6 42 -30 45 -14 2 -29 -2 -33 -8z
m45 -55 c0 -8 -7 -15 -15 -15 -8 0 -15 7 -15 15 0 8 7 15 15 15 8 0 15 -7 15
-15z"/>
<path d="M9610 3354 c0 -55 16 -50 22 6 2 28 0 40 -9 40 -9 0 -13 -15 -13 -46z"/>
<path d="M7430 3374 c0 -8 5 -12 10 -9 6 3 10 10 10 16 0 5 -4 9 -10 9 -5 0
-10 -7 -10 -16z"/>
<path d="M10813 3334 c-10 -14 -32 -45 -50 -69 -18 -24 -25 -41 -17 -38 8 3
21 18 30 34 8 16 19 29 25 29 6 0 8 4 4 9 -3 5 -1 12 5 16 11 7 33 45 26 45
-3 0 -13 -12 -23 -26z"/>
<path d="M7455 3321 c8 -40 44 -123 45 -101 0 8 -7 28 -15 44 -8 15 -15 36
-15 45 0 9 -5 23 -11 31 -7 11 -8 6 -4 -19z"/>
<path d="M10622 3280 c0 -19 2 -27 5 -17 2 9 2 25 0 35 -3 9 -5 1 -5 -18z"/>
<path d="M10655 3270 c3 -5 8 -10 11 -10 2 0 4 5 4 10 0 6 -5 10 -11 10 -5 0
-7 -4 -4 -10z"/>
<path d="M7501 3195 c1 -19 18 -51 18 -35 0 8 -4 22 -9 30 -5 8 -9 11 -9 5z"/>
<path d="M10608 3175 c-6 -30 -3 -43 8 -33 3 4 4 19 2 35 l-3 28 -7 -30z"/>
<path d="M10760 3197 c0 -2 15 -14 33 -27 l32 -23 -24 26 c-21 23 -41 35 -41
24z"/>
<path d="M10750 3160 c0 -5 5 -10 11 -10 5 0 7 5 4 10 -3 6 -8 10 -11 10 -2 0
-4 -4 -4 -10z"/>
<path d="M10815 3130 c-17 -19 -17 -19 13 -8 17 7 29 16 26 20 -8 13 -20 9
-39 -12z"/>
<path d="M10720 3119 c0 -5 5 -7 10 -4 6 3 10 8 10 11 0 2 -4 4 -10 4 -5 0
-10 -5 -10 -11z"/>
<path d="M7530 3117 c0 -3 10 -30 21 -59 12 -29 25 -64 29 -78 5 -16 9 -19 9
-8 1 20 -37 128 -50 143 -5 5 -9 6 -9 2z"/>
<path d="M10740 3095 c-14 -8 -20 -14 -15 -14 6 0 21 6 35 14 14 8 21 14 15
14 -5 0 -21 -6 -35 -14z"/>
<path d="M10602 3080 c0 -14 2 -19 5 -12 2 6 2 18 0 25 -3 6 -5 1 -5 -13z"/>
<path d="M10608 3043 c-10 -2 -18 -8 -18 -13 0 -5 14 -4 30 1 45 16 36 25 -12
12z"/>
<path d="M9513 2953 c9 -2 23 -2 30 0 6 3 -1 5 -18 5 -16 0 -22 -2 -12 -5z"/>
<path d="M7590 2941 c0 -6 4 -12 9 -15 5 -3 12 -21 15 -41 4 -19 12 -37 18
-41 6 -4 8 -1 5 7 -3 8 -11 33 -18 57 -10 37 -29 58 -29 33z"/>
<path d="M9410 2920 c-9 -6 -10 -10 -3 -10 6 0 15 5 18 10 8 12 4 12 -15 0z"/>
<path d="M9241 2831 c-10 -7 -7 -9 12 -8 14 1 23 5 20 10 -6 9 -15 9 -32 -2z"/>
<path d="M7640 2823 c0 -18 20 -66 25 -61 3 3 -1 20 -9 39 -9 19 -15 29 -16
22z"/>
<path d="M9164 2768 l-29 -31 33 23 c17 13 32 27 32 32 0 13 -5 10 -36 -24z"/>
<path d="M7677 2728 c-2 -8 2 -23 10 -33 13 -19 14 -18 7 10 -8 37 -10 39 -17
23z"/>
<path d="M7700 2644 c0 -13 18 -39 24 -34 2 3 -2 14 -10 24 -8 11 -14 16 -14
10z"/>
<path d="M9854 2609 c-4 -7 -7 -42 -7 -78 l1 -66 81 -3 81 -3 0 -44 c0 -40 -2
-44 -27 -47 -27 -3 -28 -6 -33 -71 -3 -37 -1 -72 5 -78 5 -5 39 -9 76 -9 77 0
79 3 79 84 0 57 -12 76 -47 76 -22 0 -22 3 -25 123 l-3 122 -86 3 c-62 3 -89
0 -95 -9z m154 -71 l3 -48 -65 0 -66 0 0 50 0 51 63 -3 62 -3 3 -47z m72 -248
l0 -50 -50 0 -50 0 0 50 0 50 50 0 50 0 0 -50z"/>
<path d="M7731 2578 c-1 -9 4 -29 11 -45 6 -15 10 -35 9 -43 -2 -13 -1 -13 8
0 5 8 7 19 3 25 -4 5 -12 26 -18 45 -7 19 -12 27 -13 18z"/>
<path d="M2665 2535 c-31 -30 -28 -68 7 -97 27 -23 49 -23 82 3 45 35 25 100
-36 115 -21 5 -33 0 -53 -21z m79 -6 c33 -26 31 -55 -6 -82 -25 -19 -29 -19
-51 -4 -36 23 -40 55 -12 83 29 29 35 30 69 3z"/>
<path d="M8983 2525 c-3 -9 -3 -18 -1 -21 3 -3 8 4 11 16 6 23 -1 27 -10 5z"/>
<path d="M7768 2459 c6 -7 12 -20 12 -29 0 -9 9 -34 21 -56 18 -35 19 -36 14
-9 -4 17 -11 32 -16 33 -5 2 -9 16 -9 32 0 17 -7 30 -17 35 -15 5 -16 4 -5 -6z"/>
<path d="M2370 2343 c-38 -48 -8 -103 57 -103 41 0 69 36 58 77 -14 57 -79 72
-115 26z m91 -4 c33 -33 12 -88 -34 -89 -52 0 -76 53 -40 92 21 24 48 23 74
-3z"/>
<path d="M2642 2353 c-40 -20 -71 -61 -77 -105 l-5 -33 12 34 c17 50 70 98
115 106 68 11 122 -21 154 -90 13 -28 19 -34 19 -19 0 32 -41 87 -80 106 -43
22 -95 23 -138 1z"/>
<path d="M2962 2354 c-16 -11 -22 -25 -22 -50 0 -45 19 -64 64 -64 61 0 88 66
43 108 -27 26 -54 28 -85 6z m78 -14 c11 -11 20 -28 20 -37 0 -46 -79 -73
-100 -34 -14 28 -12 52 7 73 21 24 48 23 73 -2z"/>
<path d="M5399 2309 c-35 -35 -16 -118 27 -119 18 0 49 28 41 37 -5 4 -13 0
-18 -10 -17 -30 -49 -4 -49 41 0 49 17 68 42 45 10 -9 21 -13 26 -9 7 8 -24
36 -40 36 -4 0 -18 -10 -29 -21z"/>
<path d="M5790 2267 c0 -37 4 -67 9 -67 9 0 5 120 -4 129 -3 2 -5 -26 -5 -62z"/>
<path d="M6300 2261 c0 -40 4 -70 8 -67 10 6 9 122 -1 132 -4 4 -7 -25 -7 -65z"/>
<path d="M6394 2316 c-3 -7 -4 -40 -2 -72 4 -54 5 -56 12 -26 11 40 18 40 37
0 l15 -32 1 66 c1 60 -1 67 -20 72 -32 8 -37 7 -43 -8z m46 -11 c15 -18 6 -45
-14 -45 -17 0 -25 18 -18 43 5 21 16 22 32 2z"/>
<path d="M6980 2266 c0 -37 4 -66 10 -66 6 0 10 18 10 41 0 52 24 48 28 -4 4
-44 22 -50 22 -8 0 42 -10 61 -31 61 -10 0 -19 6 -19 14 0 8 -4 18 -10 21 -6
4 -10 -18 -10 -59z"/>
<path d="M7824 2310 c3 -8 9 -23 12 -32 4 -10 10 -18 16 -18 9 0 0 20 -22 50
-10 13 -11 13 -6 0z"/>
<path d="M5920 2273 c0 -43 9 -83 19 -83 12 0 6 113 -7 118 -8 2 -12 -9 -12
-35z"/>
<path d="M8911 2294 c0 -11 3 -14 6 -6 3 7 2 16 -1 19 -3 4 -6 -2 -5 -13z"/>
<path d="M5503 2283 c-18 -7 -16 -68 3 -84 22 -18 48 0 52 35 5 42 -19 64 -55
49z m37 -42 c0 -34 -9 -44 -27 -30 -16 14 -17 41 -1 57 16 16 28 5 28 -27z"/>
<path d="M5589 2278 c0 -7 -2 -26 -3 -41 -1 -15 2 -33 6 -40 4 -7 8 6 8 29 0
22 5 45 12 52 9 9 8 12 -5 12 -9 0 -17 -6 -18 -12z"/>
<path d="M5647 2283 c-11 -10 -8 -83 3 -83 6 0 10 15 10 33 0 18 5 38 12 45 9
9 9 12 -3 12 -9 0 -19 -3 -22 -7z"/>
<path d="M5712 2278 c-7 -7 -12 -24 -12 -38 0 -14 5 -31 12 -38 15 -15 48 -16
48 -2 0 6 -9 10 -20 10 -11 0 -20 7 -20 15 0 9 9 15 25 15 26 0 29 7 19 34 -7
19 -35 21 -52 4z m36 -16 c2 -7 -3 -12 -12 -12 -9 0 -16 7 -16 16 0 17 22 14
28 -4z"/>
<path d="M5845 2279 c-4 -6 0 -9 10 -7 10 2 20 -3 22 -9 3 -8 -4 -13 -15 -13
-23 0 -40 -36 -24 -52 5 -5 20 -8 33 -6 18 2 25 10 27 30 6 48 -33 90 -53 57z
m30 -69 c-5 -8 -11 -8 -17 -2 -6 6 -7 16 -3 22 5 8 11 8 17 2 6 -6 7 -16 3
-22z"/>
<path d="M5980 2241 c0 -29 4 -50 9 -47 8 5 4 86 -5 95 -2 2 -4 -19 -4 -48z"/>
<path d="M6033 2283 c-18 -7 -16 -68 3 -84 32 -26 63 15 50 67 -6 23 -24 29
-53 17z m35 -15 c17 -17 15 -48 -4 -55 -23 -8 -38 12 -30 41 7 29 16 32 34 14z"/>
<path d="M6115 2278 c-4 -12 0 -77 5 -88 2 -3 6 15 9 39 8 59 31 67 31 12 0
-23 5 -41 11 -41 6 0 9 17 7 43 -3 38 -6 42 -31 45 -16 2 -29 -2 -32 -10z"/>
<path d="M6214 2279 c-4 -7 0 -9 14 -5 31 10 37 -13 7 -24 -37 -14 -32 -54 7
-58 22 -3 29 2 33 20 9 34 -11 78 -34 78 -11 0 -23 -5 -27 -11z m41 -69 c-5
-8 -11 -8 -17 -2 -6 6 -7 16 -3 22 5 8 11 8 17 2 6 -6 7 -16 3 -22z"/>
<path d="M6488 2266 c-15 -34 3 -76 32 -76 11 0 20 5 20 10 0 6 -9 10 -21 10
-21 0 -22 24 -1 26 7 1 17 2 23 3 6 0 9 11 7 24 -5 33 -45 35 -60 3z m42 -1
c0 -8 -7 -15 -15 -15 -16 0 -20 12 -8 23 11 12 23 8 23 -8z"/>
<path d="M6573 2274 c-4 -11 1 -23 15 -35 29 -23 30 -44 2 -29 -12 7 -20 7
-20 1 0 -12 37 -24 50 -16 16 10 11 34 -10 47 -11 7 -20 18 -20 25 0 16 12 17
29 1 11 -11 13 -10 9 2 -7 22 -47 25 -55 4z"/>
<path d="M6658 2266 c-8 -20 -8 -32 0 -51 12 -25 45 -34 57 -15 4 6 -5 10 -20
10 -32 0 -29 23 4 28 30 5 25 46 -6 50 -16 2 -26 -4 -35 -22z m47 4 c3 -6 -1
-13 -10 -16 -19 -8 -30 0 -20 15 8 14 22 14 30 1z"/>
<path d="M6757 2284 c-4 -4 -7 -12 -7 -18 0 -6 5 -5 12 2 16 16 28 15 28 -3 0
-8 -6 -15 -14 -15 -7 0 -19 -7 -26 -15 -17 -20 3 -45 37 -45 23 0 24 3 21 48
-2 38 -7 48 -23 50 -12 2 -24 0 -28 -4z m33 -64 c0 -5 -7 -10 -15 -10 -8 0
-15 5 -15 10 0 6 7 10 15 10 8 0 15 -4 15 -10z"/>
<path d="M6837 2283 c-11 -10 -8 -71 3 -78 6 -4 10 8 10 27 0 19 5 39 12 46 9
9 9 12 -3 12 -9 0 -19 -3 -22 -7z"/>
<path d="M6894 2266 c-8 -34 -2 -57 18 -70 14 -8 22 -7 35 7 17 18 17 18 -9
12 -26 -7 -28 -5 -28 22 0 36 9 46 27 31 7 -6 17 -8 20 -4 9 9 -17 26 -39 26
-10 0 -20 -10 -24 -24z"/>
<path d="M7855 2225 c9 -36 42 -115 48 -115 6 0 -39 129 -48 138 -3 4 -3 -7 0
-23z"/>
<path d="M2667 2188 c-27 -22 -31 -61 -7 -91 54 -68 153 5 106 78 -18 28 -70
34 -99 13z m89 -23 c13 -21 15 -31 6 -50 -25 -55 -102 -35 -102 26 0 51 68 67
96 24z"/>
<path d="M9744 2187 c-3 -8 -4 -41 -2 -73 l3 -59 74 0 74 0 1 70 0 70 -72 3
c-55 2 -74 0 -78 -11z m126 -62 l0 -45 -48 0 -48 0 -3 45 -2 45 51 0 50 0 0
-45z"/>
<path d="M2360 2173 c-23 -9 -70 -60 -80 -89 -6 -14 -9 -51 -8 -82 1 -44 2
-48 5 -17 7 81 15 106 44 140 70 79 206 46 239 -58 l10 -32 -5 35 c-3 25 -17
46 -46 73 -37 33 -47 37 -93 36 -28 0 -58 -3 -66 -6z"/>
<path d="M2925 2161 c-17 -10 -38 -29 -46 -42 -21 -32 -32 -79 -19 -79 5 0 10
11 10 24 0 29 33 72 70 91 66 34 159 4 186 -61 8 -18 14 -57 15 -86 0 -44 2
-49 10 -29 20 51 -19 154 -71 184 -38 23 -117 22 -155 -2z"/>
<path d="M7910 2060 c0 -5 5 -10 10 -10 6 0 10 5 10 10 0 6 -4 10 -10 10 -5 0
-10 -4 -10 -10z"/>
<path d="M7931 2029 c-1 -9 10 -45 24 -80 13 -35 24 -56 25 -46 0 10 -9 39
-19 65 -11 26 -22 54 -24 62 -5 12 -6 12 -6 -1z"/>
<path d="M9545 2033 c-8 -7 -12 -90 -6 -141 1 -10 20 -12 74 -10 l72 3 0 75 0
75 -65 3 c-36 1 -69 -1 -75 -5z m115 -73 l0 -50 -45 0 -45 0 0 50 0 50 45 0
45 0 0 -50z"/>
<path d="M2655 2011 c-11 -5 -35 -25 -53 -44 -30 -31 -34 -42 -37 -98 -4 -60
-3 -61 4 -14 10 73 34 110 86 135 52 25 90 22 136 -11 39 -28 52 -54 60 -119
l6 -55 2 48 c2 93 -52 157 -138 164 -25 1 -55 -1 -66 -6z"/>
<path d="M8921 1984 c0 -11 3 -14 6 -6 3 7 2 16 -1 19 -3 4 -6 -2 -5 -13z"/>
<path d="M9330 1795 l0 -75 65 0 c36 0 68 -1 73 -2 9 -4 18 76 13 120 l-3 32
-74 0 -74 0 0 -75z m120 0 l0 -45 -45 0 -45 0 0 45 0 45 45 0 45 0 0 -45z"/>
<path d="M2648 1854 c-5 -4 -8 -16 -8 -28 0 -14 3 -17 11 -9 6 6 9 19 7 28 -1
9 -6 13 -10 9z"/>
<path d="M2772 1835 c0 -16 2 -22 5 -12 2 9 2 23 0 30 -3 6 -5 -1 -5 -18z"/>
<path d="M8000 1831 c0 -6 4 -13 10 -16 6 -3 7 1 4 9 -7 18 -14 21 -14 7z"/>
<path d="M8020 1777 c0 -10 7 -29 16 -42 9 -13 13 -28 11 -32 -3 -5 1 -19 9
-33 15 -25 15 -25 8 9 -8 43 -43 122 -44 98z"/>
<path d="M6078 1710 c-316 -57 -573 -290 -660 -597 -32 -114 -32 -316 0 -427
31 -109 89 -221 155 -302 107 -133 213 -206 386 -267 76 -26 101 -30 221 -33
85 -2 157 2 195 10 76 17 219 72 235 91 7 8 17 15 23 15 25 0 146 104 222 191
42 47 98 151 133 244 28 74 44 210 38 310 -13 186 -53 298 -160 445 -103 142
-259 249 -436 300 -84 24 -273 35 -352 20z"/>
<path d="M8087 1594 c-4 -4 -3 -12 1 -18 5 -6 15 -30 22 -54 7 -24 18 -46 23
-49 7 -4 7 1 2 13 -4 10 -15 41 -24 67 -9 26 -20 45 -24 41z"/>
<path d="M8140 1431 c0 -6 5 -13 10 -16 6 -3 10 -12 10 -19 0 -20 30 -89 36
-83 3 3 -2 19 -11 36 -8 17 -13 31 -10 31 3 0 -1 14 -10 30 -16 30 -25 38 -25
21z"/>
<path d="M8600 1425 c7 -8 20 -15 28 -15 13 0 12 3 -4 15 -25 19 -40 19 -24 0z"/>
<path d="M8523 1418 c-18 -23 -25 -58 -12 -58 7 0 9 3 6 7 -4 3 0 17 9 31 17
25 14 41 -3 20z"/>
<path d="M8630 1335 c-11 -13 -10 -14 4 -9 9 3 16 10 16 15 0 13 -6 11 -20 -6z"/>
<path d="M8525 1330 c-3 -5 -1 -10 4 -10 6 0 11 5 11 10 0 6 -2 10 -4 10 -3 0
-8 -4 -11 -10z"/>
<path d="M8430 1305 c-7 -8 -8 -15 -2 -15 5 0 15 7 22 15 7 8 8 15 2 15 -5 0
-15 -7 -22 -15z"/>
<path d="M8555 1309 c-4 -6 -5 -12 -2 -15 2 -3 7 2 10 11 7 17 1 20 -8 4z"/>
<path d="M8592 1304 c-7 -8 -8 -14 -3 -14 10 0 25 19 20 25 -2 1 -10 -3 -17
-11z"/>
<path d="M8206 1260 c22 -58 28 -64 19 -20 -4 19 -14 42 -22 50 -11 12 -11 6
3 -30z"/>
<path d="M8354 1276 c-29 -22 -13 -24 26 -4 26 13 30 18 14 18 -11 0 -29 -6
-40 -14z"/>
<path d="M8270 1240 c-11 -8 -7 -9 15 -4 37 8 45 14 19 14 -10 0 -26 -5 -34
-10z"/>
</g>
</svg>
