<?xml version="1.0" standalone="no"?>
<!DOCTYPE svg PUBLIC "-//W3C//DTD SVG 20010904//EN"
 "http://www.w3.org/TR/2001/REC-SVG-20010904/DTD/svg10.dtd">
<svg version="1.0" xmlns="http://www.w3.org/2000/svg"
 width="500.000000pt" height="121.000000pt" viewBox="0 0 500.000000 121.000000"
 preserveAspectRatio="xMidYMid meet">
<metadata>
Created by potrace 1.16, written by Peter Selinger 2001-2019
</metadata>
<g transform="translate(0.000000,121.000000) scale(0.100000,-0.100000)"
fill="#000000" stroke="none">
<path d="M0 605 l0 -605 2500 0 2500 0 0 605 0 605 -2500 0 -2500 0 0 -605z
m1097 491 c32 -35 33 -35 96 -29 75 7 114 -9 146 -60 11 -18 32 -39 46 -47 49
-26 68 -77 55 -154 -7 -46 -5 -51 20 -75 39 -36 62 -86 54 -116 -3 -14 -22
-40 -40 -57 -33 -32 -34 -34 -32 -108 3 -85 -7 -106 -66 -146 -20 -14 -36 -31
-36 -39 0 -8 -16 -26 -35 -41 -33 -25 -40 -26 -106 -21 l-70 6 -32 -36 c-26
-27 -42 -36 -79 -40 -42 -5 -49 -2 -88 33 -42 38 -44 39 -122 39 -79 0 -80 0
-109 35 -36 44 -45 53 -89 89 l-35 29 2 81 c2 79 1 81 -32 114 -58 58 -56 119
7 172 28 24 29 27 23 92 -5 58 -3 73 15 101 11 18 34 41 50 50 17 9 32 24 35
33 3 9 17 27 31 40 23 21 35 24 103 24 77 0 79 1 121 39 39 35 46 38 88 33 37
-4 53 -12 79 -41z m1913 -211 c0 -33 1 -34 30 -29 19 4 38 1 55 -10 23 -15 25
-23 25 -86 0 -68 -1 -70 -25 -70 -23 0 -25 4 -25 48 0 59 -13 81 -37 66 -13
-8 -19 -26 -21 -63 -3 -46 -5 -51 -27 -51 -23 0 -24 2 -27 111 -2 61 -1 113 1
115 2 2 15 4 28 4 20 0 23 -5 23 -35z m358 19 c26 -18 29 -56 6 -79 -9 -8 -13
-22 -10 -30 6 -17 32 -20 41 -5 9 14 45 13 45 -2 0 -6 -7 -20 -17 -30 -15 -17
-15 -19 0 -36 25 -28 21 -34 -20 -31 -21 2 -52 0 -70 -5 -46 -11 -93 15 -93
52 0 15 7 38 16 51 14 19 14 27 4 47 -31 56 42 107 98 68z m442 -19 c0 -33 1
-34 30 -29 19 4 38 1 55 -10 23 -15 25 -23 25 -86 0 -68 -1 -70 -25 -70 -23 0
-25 4 -25 48 0 59 -13 81 -37 66 -13 -8 -19 -26 -21 -63 -3 -46 -5 -51 -27
-51 -23 0 -24 2 -27 108 -2 59 -2 110 0 115 2 4 14 7 28 7 21 0 24 -5 24 -35z
m-2035 0 c31 -30 32 -62 4 -91 l-21 -23 31 -38 32 -38 -33 -3 c-27 -3 -38 2
-64 32 -17 20 -34 36 -38 36 -3 0 -6 -16 -6 -36 0 -33 -2 -35 -27 -32 l-28 3
-3 94 c-1 52 -1 100 2 108 4 9 25 13 66 13 51 0 65 -4 85 -25z m1955 0 c0 -20
-5 -25 -25 -25 -25 0 -25 -1 -25 -85 l0 -85 -30 0 -30 0 0 84 0 85 -27 3 c-20
2 -29 9 -31 26 -3 21 -1 22 82 22 85 0 86 0 86 -25z m-1756 -47 c14 -13 28
-35 31 -49 6 -23 3 -27 -26 -33 -17 -3 -45 -6 -61 -6 -18 0 -27 -4 -23 -11 5
-7 25 -8 56 -4 54 7 61 -1 28 -31 -13 -12 -35 -19 -61 -19 -50 0 -88 39 -88
88 0 37 6 47 40 70 34 23 74 21 104 -5z m174 6 c30 -21 30 -48 0 -41 -13 2
-31 8 -40 12 -11 4 -18 3 -18 -3 0 -6 16 -16 35 -22 68 -23 68 -93 0 -106 -38
-7 -95 18 -95 42 0 14 8 15 45 10 49 -8 64 8 16 17 -35 7 -61 32 -61 57 0 24
37 50 70 50 14 0 36 -7 48 -16z m203 -14 c20 -19 29 -38 27 -52 -3 -21 -9 -23
-57 -24 -35 -1 -57 -6 -59 -14 -4 -10 8 -11 52 -6 60 8 69 1 35 -30 -53 -48
-149 -6 -149 65 1 84 92 121 151 61z m229 -55 l0 -82 -52 -6 c-90 -8 -127 18
-128 90 0 61 30 82 115 81 l65 -1 0 -82z m317 63 c13 -12 23 -27 23 -35 0 -16
-34 -17 -60 -1 -39 25 -81 -32 -45 -62 12 -10 21 -10 41 -1 63 28 89 -4 32
-40 -63 -38 -138 1 -138 73 0 76 92 118 147 66z m1203 -4 c23 -20 30 -34 28
-53 -3 -24 -6 -26 -58 -27 -30 -1 -53 -5 -50 -10 3 -5 26 -8 53 -6 52 3 58 -5
26 -34 -33 -30 -96 -25 -125 9 -33 39 -31 81 5 118 38 37 79 38 121 3z m168
10 c30 -21 28 -44 -3 -44 -14 0 -25 5 -25 10 0 6 -7 10 -15 10 -26 0 -16 -18
14 -25 63 -14 81 -78 28 -103 -31 -15 -79 -8 -102 15 -27 27 -18 36 30 30 56
-8 59 6 5 22 -22 6 -40 16 -40 21 0 4 -3 15 -6 23 -8 22 31 57 64 57 15 0 38
-7 50 -16z m274 -1 c10 -9 18 -22 18 -30 0 -15 -46 -18 -55 -3 -8 13 -25 13
-25 0 0 -6 13 -13 29 -16 42 -9 65 -37 57 -69 -11 -45 -93 -57 -131 -18 -27
27 -18 36 30 30 50 -7 62 8 15 18 -17 4 -37 13 -45 22 -50 50 54 115 107 66z
m-1773 -287 c7 -8 11 -22 9 -32 -2 -9 3 -19 10 -21 6 -3 12 2 12 11 0 17 35
29 71 24 20 -2 24 -10 27 -45 l3 -43 -46 0 c-38 0 -47 4 -54 22 l-8 22 -12
-22 c-9 -17 -21 -22 -51 -22 l-40 0 0 60 0 60 34 0 c18 0 39 -6 45 -14z m-732
-36 c17 -19 17 -19 30 0 18 26 58 25 77 -1 17 -25 7 -62 -18 -67 -30 -6 -66 8
-67 26 0 14 -3 13 -16 -5 -9 -13 -26 -23 -39 -23 -14 0 -24 -6 -24 -14 0 -21
-21 -31 -31 -15 -6 11 -6 82 1 117 0 1 16 2 35 2 23 0 41 -7 52 -20z"/>
<path d="M1098 979 c-10 -5 -29 -30 -44 -54 -31 -54 -57 -58 -80 -12 -33 64
-74 88 -88 50 -5 -11 7 -29 37 -57 24 -23 52 -56 61 -73 21 -41 31 -41 51 -3
8 16 36 49 61 74 41 38 45 46 35 65 -7 11 -13 21 -14 21 -1 0 -10 -5 -19 -11z"/>
<path d="M1089 818 c-22 -30 -49 -107 -49 -139 0 -14 6 -16 33 -12 45 6 136
49 143 66 3 8 0 33 -6 56 -11 41 -11 42 -82 56 -11 2 -26 -9 -39 -27z"/>
<path d="M838 833 c-19 -5 -43 -76 -34 -100 7 -16 96 -58 145 -67 l34 -6 -7
42 c-4 24 -17 63 -29 88 -20 39 -27 45 -58 47 -18 0 -42 -1 -51 -4z"/>
<path d="M1293 735 c-15 -20 -49 -50 -75 -66 -27 -17 -48 -32 -48 -33 0 -2 25
-20 55 -41 30 -20 55 -40 55 -44 1 -3 10 -17 20 -30 l20 -24 38 25 c55 37 112
95 112 115 0 18 -71 88 -118 116 l-31 17 -28 -35z"/>
<path d="M660 744 c-50 -34 -100 -88 -100 -110 0 -14 18 -38 48 -64 76 -68 82
-69 135 -17 25 25 59 53 76 61 17 9 31 18 31 20 0 1 -23 17 -50 35 -28 18 -61
46 -72 62 -25 33 -34 35 -68 13z"/>
<path d="M919 596 c-25 -6 -61 -21 -80 -32 -31 -19 -34 -24 -32 -64 1 -24 6
-47 11 -52 5 -5 31 -10 57 -11 46 -2 47 -1 71 43 25 48 43 130 28 129 -5 0
-30 -6 -55 -13z"/>
<path d="M1040 590 c0 -32 38 -133 58 -151 14 -13 25 -14 59 -7 34 7 43 14 52
40 21 59 15 72 -41 100 -29 14 -70 29 -90 32 -34 6 -38 5 -38 -14z"/>
<path d="M984 438 c-10 -18 -37 -51 -61 -73 -46 -42 -51 -75 -12 -75 18 0 60
48 72 83 10 27 46 21 60 -10 12 -28 29 -48 59 -71 14 -11 18 -10 28 9 11 19 7
26 -33 65 -25 24 -53 57 -63 74 -23 38 -30 38 -50 -2z"/>
</g>
</svg>
